<?xml version="1.0" standalone="no"?>
<!DOCTYPE svg PUBLIC "-//W3C//DTD SVG 20010904//EN"
 "http://www.w3.org/TR/2001/REC-SVG-20010904/DTD/svg10.dtd">
<svg version="1.0" xmlns="http://www.w3.org/2000/svg"
 width="300.000000pt" height="308.000000pt" viewBox="0 0 300.000000 308.000000"
 preserveAspectRatio="xMidYMid meet">
<metadata>
Created by potrace 1.10, written by Peter Selinger 2001-2011
</metadata>
<g transform="translate(0.000000,308.000000) scale(0.100000,-0.100000)"
fill="#000000" stroke="none">
<path d="M1467 2862 c5 -53 35 -91 41 -52 2 12 -4 28 -15 36 -16 13 -16 13 0
8 25 -9 21 18 -7 38 l-23 17 4 -47z"/>
<path d="M1535 2878 c-8 -13 -11 -24 -6 -26 6 -2 7 -12 1 -27 -12 -33 3 -39
31 -14 13 11 19 18 12 14 -9 -4 -11 6 -7 35 5 45 -7 52 -31 18z"/>
<path d="M722 2808 c-18 -18 -15 -43 8 -63 19 -17 21 -17 40 0 32 29 20 75
-20 75 -9 0 -21 -5 -28 -12z m45 -24 c7 -18 -17 -38 -31 -24 -11 11 -1 40 14
40 6 0 13 -7 17 -16z"/>
<path d="M2246 2801 c-17 -19 -17 -21 1 -45 22 -31 33 -32 61 -6 27 25 27 32
4 53 -24 22 -45 21 -66 -2z m51 -17 c8 -20 -8 -36 -26 -25 -15 10 -8 41 9 41
6 0 13 -7 17 -16z"/>
<path d="M1454 2785 c-7 -18 -35 -20 -52 -3 -19 19 -14 4 11 -28 19 -27 26
-30 53 -22 42 11 49 32 18 53 -22 14 -25 14 -30 0z"/>
<path d="M1552 2785 c-31 -22 -28 -41 9 -54 18 -6 33 -11 35 -11 1 0 13 14 25
31 20 29 20 30 2 21 -20 -11 -37 -5 -44 16 -3 9 -9 9 -27 -3z"/>
<path d="M1373 2753 c3 -12 0 -21 -5 -20 -6 1 -13 -4 -15 -11 -4 -10 2 -13 18
-10 29 4 33 19 13 43 -15 20 -15 20 -11 -2z"/>
<path d="M1642 2752 c-21 -37 11 -60 38 -27 11 13 10 14 -3 9 -11 -4 -16 1
-19 18 l-3 23 -13 -23z"/>
<path d="M920 2731 c0 -24 13 -33 34 -25 17 7 22 34 6 34 -5 0 -10 -7 -10 -15
0 -8 -4 -15 -9 -15 -5 0 -7 9 -4 20 3 11 0 20 -6 20 -6 0 -11 -9 -11 -19z"/>
<path d="M2083 2743 c-28 -5 -30 -24 -4 -40 17 -11 21 -9 30 17 5 17 7 29 3
29 -4 -1 -17 -4 -29 -6z"/>
<path d="M983 2716 c3 -7 0 -19 -6 -25 -11 -11 0 -16 30 -12 7 1 22 -3 33 -9
11 -6 20 -7 20 -2 0 12 -40 48 -40 36 0 -5 -5 -1 -11 9 -12 20 -34 23 -26 3z"/>
<path d="M885 2699 c-5 -14 -2 -25 6 -30 22 -14 29 -11 29 11 0 11 -5 20 -11
20 -5 0 -7 5 -4 10 3 6 2 10 -4 10 -5 0 -13 -10 -16 -21z"/>
<path d="M1467 2709 c-21 -12 -15 -46 11 -66 27 -21 33 -15 30 29 -3 45 -13
53 -41 37z"/>
<path d="M1533 2713 c-15 -6 -17 -69 -3 -78 6 -3 10 -1 10 6 0 7 3 9 7 6 9 -9
33 12 33 30 0 13 -24 44 -32 42 -2 0 -9 -3 -15 -6z"/>
<path d="M2020 2709 c0 -5 -3 -8 -7 -6 -5 2 -19 -7 -33 -21 -21 -21 -22 -23
-5 -16 11 4 34 8 52 8 27 0 30 2 23 16 -5 10 -6 20 -3 24 3 3 -1 6 -10 6 -9 0
-17 -5 -17 -11z"/>
<path d="M1337 2698 c2 -5 11 -8 19 -8 8 0 12 -4 9 -10 -3 -5 0 -10 8 -10 17
0 27 -21 27 -54 0 -16 -11 -28 -37 -42 -27 -14 -45 -34 -63 -70 -14 -28 -40
-67 -57 -88 -18 -20 -33 -43 -33 -51 0 -17 -18 -19 -39 -6 -13 8 -12 24 4 63
10 25 -28 58 -70 58 -31 0 -35 4 -44 36 -6 23 -6 45 0 61 5 13 9 36 8 51 l0
27 -12 -25 c-6 -14 -17 -29 -24 -33 -19 -12 -16 -30 20 -107 30 -66 45 -80 55
-50 3 8 0 10 -9 5 -11 -6 -11 -5 -3 4 19 21 49 9 52 -22 3 -22 -1 -27 -18 -27
-17 0 -20 -4 -15 -17 4 -10 10 -26 12 -35 3 -10 10 -18 15 -18 5 0 6 -5 3 -10
-4 -7 2 -9 18 -5 19 5 25 2 30 -14 7 -28 21 -26 37 4 11 20 11 27 -1 42 -12
16 -12 17 2 5 13 -10 19 -9 29 3 10 13 9 15 -9 15 -11 0 -21 5 -21 10 0 6 8
10 19 10 22 0 73 59 67 77 -3 7 -1 13 4 13 6 0 9 3 8 8 -3 15 15 42 28 42 8 0
14 5 14 11 0 6 7 9 15 5 8 -3 15 0 15 7 0 8 3 8 9 -2 7 -11 11 -10 19 5 5 11
7 25 5 32 -3 6 0 12 6 12 11 0 7 31 -10 72 -9 22 -18 27 -54 30 -24 1 -41 0
-38 -4z"/>
<path d="M1689 2705 c-3 -2 -22 -5 -42 -7 -31 -2 -39 -7 -44 -28 -3 -14 -10
-30 -14 -36 -10 -12 -5 -44 10 -72 11 -22 48 -22 62 -1 8 10 9 8 4 -8 -4 -14
-2 -23 5 -23 12 0 41 -25 40 -35 -2 -32 3 -48 20 -65 11 -11 20 -24 20 -30 0
-5 9 -10 20 -10 11 0 20 -4 20 -10 0 -5 -7 -10 -16 -10 -8 0 -12 -5 -9 -11 4
-6 12 -8 19 -6 8 3 12 -7 12 -29 0 -18 3 -36 6 -39 9 -10 38 7 38 22 0 9 6 13
15 9 10 -3 15 1 15 12 0 12 3 13 8 4 6 -8 13 -1 25 23 21 44 21 43 0 41 -26
-2 -25 57 1 62 10 2 22 0 27 -5 6 -6 1 -9 -13 -9 -14 1 -24 -6 -26 -16 -2 -10
1 -18 7 -18 6 0 8 7 5 15 -7 18 7 20 24 3 6 -6 13 -10 14 -7 2 2 17 33 35 69
38 79 47 111 26 103 -7 -3 -13 -2 -11 3 2 5 -1 10 -7 11 -5 1 -13 10 -17 20
-6 14 -7 13 -5 -7 2 -14 8 -34 14 -45 9 -16 8 -28 -5 -55 -19 -42 -28 -49 -52
-43 -9 3 -29 -6 -44 -19 -24 -21 -26 -26 -17 -51 13 -33 9 -43 -19 -50 -13 -3
-20 0 -20 9 0 8 -15 32 -34 52 -19 20 -35 40 -35 45 -3 36 -64 110 -102 122
-27 9 -25 56 4 83 13 12 29 22 35 22 7 0 12 5 12 10 0 11 -4 13 -11 5z"/>
<path d="M2114 2695 c-8 -20 4 -35 23 -28 11 4 14 3 9 -5 -4 -8 0 -12 10 -12
14 0 15 3 6 12 -7 7 -12 20 -12 30 0 21 -28 24 -36 3z"/>
<path d="M876 2652 c-4 -6 2 -15 11 -21 10 -6 13 -11 6 -11 -8 0 -9 -9 -3 -31
11 -38 12 -39 38 -44 64 -12 122 -84 109 -135 -3 -13 3 -31 19 -49 23 -27 23
-31 9 -64 -8 -19 -21 -37 -30 -41 -9 -3 -14 -2 -11 3 6 10 -46 31 -75 31 -10
0 -26 11 -35 25 -23 36 -51 41 -75 14 -10 -12 -19 -28 -19 -36 0 -26 -18 -12
-24 20 -3 17 -19 45 -36 60 l-30 29 0 -31 c0 -31 14 -49 25 -31 3 5 11 10 17
10 7 0 7 -4 0 -12 -21 -26 -18 -76 7 -102 25 -26 48 -36 35 -14 -4 6 -3 8 4 4
16 -10 53 34 43 52 -11 20 -2 52 14 52 8 0 11 -8 8 -19 -3 -13 4 -29 20 -45
22 -22 30 -24 51 -16 18 6 26 6 26 -1 0 -6 5 -7 11 -4 6 4 13 -2 16 -14 6 -25
19 -27 31 -5 6 11 11 13 16 5 4 -6 16 -11 27 -11 11 0 18 4 15 9 -4 5 0 11 6
14 10 3 10 7 0 20 -14 17 -7 41 9 32 12 -8 11 25 -2 64 -9 24 -14 29 -24 21
-17 -14 -29 3 -21 28 8 23 -48 128 -79 148 -14 9 -33 12 -49 8 -24 -6 -26 -4
-26 24 0 17 5 34 10 37 6 4 8 11 4 16 -3 5 -10 6 -16 3 -6 -4 -14 -1 -18 6 -5
8 -10 9 -14 2z"/>
<path d="M988 2646 c-20 -14 -24 -36 -8 -36 6 0 10 7 10 16 0 13 3 14 14 5 16
-13 32 2 21 19 -8 13 -16 12 -37 -4z"/>
<path d="M1995 2649 c-8 -12 3 -29 19 -29 22 0 26 36 5 37 -10 1 -21 -2 -24
-8z"/>
<path d="M2099 2634 c12 -15 21 -38 21 -51 0 -20 -4 -23 -21 -18 -38 12 -72
-12 -107 -78 -21 -40 -30 -70 -26 -83 4 -14 0 -23 -10 -27 -9 -4 -16 -2 -16 2
0 5 6 12 13 14 9 4 9 6 0 6 -15 1 -27 -21 -41 -71 -9 -32 -8 -38 4 -38 9 0 12
5 8 12 -4 7 -3 8 4 4 15 -9 16 -33 2 -38 -5 -1 -7 -13 -4 -26 6 -19 9 -20 22
-10 12 10 14 10 8 1 -5 -9 -1 -13 13 -13 10 0 26 -3 35 -6 10 -4 16 -1 16 9 0
18 34 32 68 28 30 -3 62 25 62 56 0 15 6 23 16 23 13 0 15 -7 11 -36 -5 -29
-2 -40 18 -60 29 -29 47 -24 71 21 15 28 16 38 6 61 -7 14 -10 29 -6 33 4 3 9
0 11 -7 9 -24 23 -1 22 36 0 20 -3 31 -6 24 -3 -7 -16 -24 -29 -37 -13 -13
-24 -35 -24 -48 0 -12 -5 -28 -12 -35 -9 -9 -14 -5 -22 20 -18 52 -40 58 -79
20 -18 -17 -40 -32 -49 -32 -8 0 -33 -6 -55 -14 l-40 -14 -17 33 c-18 33 -18
34 6 67 14 18 23 41 20 52 -2 10 4 36 13 57 14 31 29 44 76 65 68 32 82 59 47
99 -30 35 -56 34 -29 -1z"/>
<path d="M1776 2568 c-30 -25 -28 -51 5 -69 14 -7 25 -5 44 7 31 20 31 34 1
63 l-24 22 -26 -23z m42 -31 c2 -10 -3 -17 -12 -17 -18 0 -29 16 -21 31 9 14
29 6 33 -14z"/>
<path d="M1195 2564 c-9 -9 -14 -23 -11 -31 3 -8 6 -16 6 -18 0 -3 9 -9 20
-15 41 -22 84 27 54 61 -21 23 -47 24 -69 3z m53 -27 c2 -10 -3 -17 -12 -17
-18 0 -29 16 -21 31 9 14 29 6 33 -14z"/>
<path d="M1456 2548 c-14 -20 -14 -25 -1 -45 8 -12 15 -29 15 -38 0 -21 17
-19 30 5 10 19 9 48 -5 83 -9 23 -21 22 -39 -5z"/>
<path d="M1543 2562 c-18 -11 -25 -69 -12 -93 10 -20 12 -19 35 19 21 35 23
44 12 62 -14 22 -17 23 -35 12z"/>
<path d="M1409 2499 c-1 -17 -3 -19 -6 -6 -6 23 -40 22 -53 -2 -18 -34 -11
-41 34 -41 25 0 48 -4 51 -10 3 -5 12 -10 18 -9 9 0 9 2 0 6 -7 2 -13 11 -13
19 0 8 -6 14 -12 14 -10 0 -10 2 -1 8 8 5 8 12 -3 26 -13 19 -14 19 -15 -5z"/>
<path d="M1598 2491 c-18 -22 -12 -37 9 -20 9 9 13 8 13 0 0 -6 -4 -12 -10
-12 -5 -1 -14 -2 -19 -3 -5 0 -13 -5 -17 -9 -7 -7 106 2 114 9 2 1 1 11 -2 22
-8 25 -37 37 -48 20 -6 -10 -8 -10 -8 0 0 18 -13 15 -32 -7z"/>
<path d="M2510 2425 c0 -17 -4 -23 -15 -19 -19 8 -66 -41 -59 -60 8 -22 20
-20 38 6 9 12 16 19 16 14 0 -5 6 -4 13 2 12 11 23 82 12 82 -3 0 -5 -11 -5
-25z"/>
<path d="M470 2430 c-13 -8 -13 -10 0 -14 30 -10 46 -11 47 -1 0 6 -4 9 -10 7
-5 -2 -13 1 -16 7 -4 6 -12 6 -21 1z"/>
<path d="M947 2422 c-22 -24 -21 -45 1 -65 25 -23 34 -21 61 7 l22 24 -28 26
c-33 31 -35 31 -56 8z m43 -32 c0 -21 -24 -28 -35 -10 -8 14 3 30 21 30 8 0
14 -9 14 -20z"/>
<path d="M1503 2425 c-7 -20 2 -29 21 -22 9 4 13 13 10 22 -8 19 -23 19 -31 0z"/>
<path d="M2038 2424 c-34 -18 -35 -34 -5 -62 30 -28 38 -27 61 4 18 26 18 26
-5 49 -22 22 -26 23 -51 9z m38 -25 c10 -17 -13 -36 -27 -22 -12 12 -4 33 11
33 5 0 12 -5 16 -11z"/>
<path d="M532 2410 c-15 -24 -6 -51 15 -43 11 4 14 2 9 -5 -3 -6 2 -16 13 -22
28 -14 35 3 17 37 -8 16 -16 24 -16 18 0 -5 -6 0 -13 12 -12 22 -13 22 -25 3z"/>
<path d="M1599 2409 l-23 -23 24 -7 c15 -4 31 -1 40 7 12 12 12 16 -2 30 -15
15 -18 14 -39 -7z"/>
<path d="M1680 2415 c0 -8 -4 -15 -10 -15 -5 0 -6 -7 -3 -17 4 -10 2 -14 -5
-9 -15 9 -35 -31 -26 -52 4 -9 8 -19 9 -22 2 -3 6 -15 10 -27 7 -21 7 -21 48
-3 49 22 70 48 57 70 -7 12 -12 11 -29 -4 -24 -22 -28 -11 -5 15 14 16 14 19
-2 38 -16 19 -18 19 -31 3 -11 -15 -12 -13 -3 11 6 17 6 27 0 27 -6 0 -10 -7
-10 -15z"/>
<path d="M1310 2409 c0 -4 8 -13 18 -19 15 -10 14 -10 -5 -5 -30 8 -39 -12
-16 -37 18 -21 18 -21 -6 -8 -18 9 -25 9 -31 0 -14 -23 2 -51 37 -65 49 -21
62 -19 69 10 3 13 12 29 20 36 20 17 -1 52 -26 44 -18 -6 -19 -2 -14 27 4 25
3 29 -5 18 -6 -8 -11 -10 -11 -4 0 6 -7 11 -15 11 -8 0 -15 -4 -15 -8z"/>
<path d="M1384 2409 c-3 -6 1 -18 9 -27 15 -14 17 -14 23 2 5 14 9 15 15 5 10
-17 23 -4 16 16 -7 17 -52 20 -63 4z"/>
<path d="M698 2402 c-21 -4 -24 -42 -4 -42 8 0 18 9 21 21 8 24 6 27 -17 21z"/>
<path d="M2317 2402 c-3 -4 -1 -16 4 -27 4 -11 8 -15 8 -10 1 6 6 3 11 -5 8
-12 10 -9 10 11 0 25 -24 47 -33 31z"/>
<path d="M2416 2374 c-4 -10 -13 -13 -25 -9 -27 8 -35 -11 -21 -46 22 -52 55
-33 56 34 0 41 -1 44 -10 21z"/>
<path d="M608 2346 c-3 -29 0 -40 14 -47 24 -13 35 -5 43 32 8 35 -10 64 -21
35 -6 -16 -7 -16 -19 1 -11 15 -13 12 -17 -21z"/>
<path d="M2556 2361 c-3 -5 -16 -7 -28 -3 -17 4 -20 2 -15 -11 4 -10 2 -14 -6
-11 -7 2 -23 -6 -36 -19 l-22 -25 25 -6 c18 -4 31 -1 46 14 11 11 24 20 30 20
5 0 7 6 4 14 -3 8 0 13 8 13 7 -1 14 2 16 8 5 13 -15 19 -22 6z"/>
<path d="M484 2336 c-10 -22 -9 -24 8 -21 13 3 22 -2 25 -15 6 -21 29 -26 53
-10 12 7 11 12 -9 29 -13 11 -28 18 -33 15 -4 -3 -7 0 -6 7 5 24 -27 19 -38
-5z"/>
<path d="M687 2333 c-15 -26 -16 -61 -2 -67 18 -7 42 2 48 17 12 31 -31 77
-46 50z"/>
<path d="M2307 2333 c-4 -3 -7 -22 -7 -41 0 -32 1 -34 27 -27 36 9 34 6 27 43
-6 30 -30 43 -47 25z"/>
<path d="M1614 2286 c9 -38 -20 -96 -56 -108 -32 -11 -36 -24 -10 -31 13 -4
12 -5 -5 -6 -16 -1 -20 -6 -16 -21 7 -25 14 -25 47 1 15 12 26 30 26 45 0 13
4 24 10 24 5 0 17 11 26 25 14 21 14 30 4 55 -17 40 -35 52 -26 16z"/>
<path d="M2713 2299 c-12 -4 -26 -17 -32 -27 -8 -15 -6 -24 13 -41 12 -11 27
-21 33 -21 14 0 43 34 43 52 0 25 -32 47 -57 37z m27 -39 c0 -11 -6 -20 -14
-20 -18 0 -29 16 -21 30 11 18 35 11 35 -10z"/>
<path d="M284 2292 c-21 -14 -24 -42 -7 -62 21 -24 39 -25 59 -6 37 38 -8 98
-52 68z m44 -35 c2 -12 -3 -17 -17 -17 -15 0 -21 6 -21 21 0 25 33 22 38 -4z"/>
<path d="M561 2269 c-18 -7 -21 -13 -13 -21 8 -8 5 -16 -11 -30 l-22 -19 22 6
c12 3 32 1 44 -6 19 -10 25 -9 36 7 14 19 8 54 -11 66 -13 9 -15 9 -45 -3z"/>
<path d="M1386 2264 c-3 -9 -6 -19 -6 -23 0 -15 57 -80 64 -73 4 3 5 0 2 -8
-7 -19 3 -34 31 -49 30 -15 33 -14 33 14 0 19 -4 23 -17 19 -15 -5 -15 -4 1 7
18 11 16 13 -15 26 -19 9 -39 16 -46 16 -6 0 -14 20 -18 44 -6 44 -18 55 -29
27z"/>
<path d="M1558 2259 c-17 -18 -17 -19 2 -29 24 -13 50 -2 29 11 -10 6 -11 9
-1 9 6 0 12 7 12 15 0 20 -21 18 -42 -6z"/>
<path d="M2411 2258 c-10 -28 2 -64 21 -60 7 2 28 4 47 5 l33 1 -23 19 c-19
15 -20 20 -9 27 11 7 8 11 -13 19 -40 15 -47 14 -56 -11z"/>
<path d="M1432 2240 c-1 -25 2 -29 16 -21 9 5 20 9 25 10 19 3 6 27 -19 35
-18 5 -21 2 -22 -24z"/>
<path d="M649 2248 c-1 -2 -3 -15 -5 -30 -4 -35 28 -57 54 -36 10 8 13 9 9 1
-4 -6 -3 -14 3 -18 5 -3 10 0 10 9 0 25 -63 91 -71 74z"/>
<path d="M703 2238 c2 -7 11 -12 20 -12 9 1 15 -2 12 -6 -6 -10 14 -24 22 -16
9 9 -27 46 -44 46 -8 0 -13 -6 -10 -12z"/>
<path d="M1152 2238 c-19 -19 -14 -28 18 -28 17 0 30 4 30 8 0 9 -21 32 -30
32 -3 0 -11 -5 -18 -12z"/>
<path d="M1242 2232 c-14 -11 -19 -21 -13 -27 5 -6 12 -20 15 -31 5 -16 2 -23
-15 -27 -15 -4 -19 -2 -15 9 3 8 2 13 -3 10 -5 -3 -11 1 -15 9 -3 8 -10 15
-17 15 -6 0 -9 -6 -6 -14 3 -8 -3 -26 -14 -39 -37 -48 -21 -61 30 -23 17 13
52 29 76 35 27 7 51 20 60 35 17 26 10 60 -11 52 -7 -3 -15 0 -18 7 -3 8 -5 6
-5 -3 0 -8 3 -22 8 -30 16 -24 2 -31 -30 -15 -35 19 -38 28 -5 19 21 -5 24 -3
19 15 -6 25 -11 26 -41 3z"/>
<path d="M1740 2239 c0 -5 -4 -8 -9 -5 -5 4 -16 4 -24 1 -16 -7 -12 -49 8 -65
18 -15 74 -20 81 -8 4 7 2 8 -4 4 -7 -4 -12 -2 -12 4 0 6 7 13 15 16 21 9 19
41 -4 54 -25 13 -51 13 -51 -1z m14 -25 c24 -9 19 -24 -9 -24 -18 0 -23 4 -19
15 7 17 7 17 28 9z"/>
<path d="M1840 2235 c-16 -20 -3 -37 23 -29 30 9 32 11 17 29 -16 19 -24 19
-40 0z"/>
<path d="M2343 2227 c-15 -15 -21 -29 -17 -44 6 -21 8 -22 36 -7 23 12 29 21
26 41 -4 34 -18 37 -45 10z"/>
<path d="M856 2218 c-14 -19 -13 -24 4 -48 11 -15 17 -30 14 -33 -3 -3 -1 -8
4 -11 5 -3 12 13 15 36 3 24 11 44 16 46 6 2 11 8 11 13 0 6 -4 7 -10 4 -5 -3
-10 -1 -10 4 0 19 -28 12 -44 -11z"/>
<path d="M2115 2230 c-3 -5 0 -10 7 -10 8 -1 5 -7 -7 -17 -15 -12 -16 -14 -3
-10 20 7 55 -38 35 -46 -8 -4 -7 -6 3 -6 9 -1 20 14 26 34 9 29 8 37 -6 50
-19 17 -46 20 -55 5z"/>
<path d="M964 2223 c5 -9 0 -13 -13 -13 -15 0 -19 -4 -14 -17 4 -10 2 -14 -5
-10 -6 4 -12 -1 -14 -10 -2 -10 5 -22 17 -28 25 -13 65 18 65 49 0 17 -2 18
-10 6 -9 -14 -11 -13 -14 9 0 5 -5 13 -10 18 -5 5 -6 3 -2 -4z"/>
<path d="M2556 2215 c-8 -8 -20 -15 -26 -15 -6 0 -9 -4 -6 -9 3 -5 -3 -11 -14
-14 -11 -3 -20 -1 -20 4 0 5 -7 9 -16 9 -9 0 -14 -7 -12 -17 2 -10 10 -18 17
-18 8 0 15 -8 17 -17 1 -10 -4 -18 -12 -18 -8 0 -14 4 -14 10 0 5 -13 16 -30
25 -26 14 -33 14 -58 1 -36 -19 -65 -86 -46 -104 7 -7 22 -12 34 -12 11 0 20
-6 20 -14 0 -9 -7 -13 -20 -11 -11 2 -20 -1 -20 -7 0 -7 -6 -4 -14 7 -12 17
-13 16 -20 -11 -4 -16 -14 -37 -23 -46 -16 -18 -10 -38 13 -38 8 0 14 -4 14
-9 0 -15 -18 -23 -25 -11 -8 13 -25 3 -25 -13 0 -7 4 -6 10 3 7 11 10 7 10
-17 0 -28 3 -33 25 -33 14 0 25 5 25 11 0 6 7 3 16 -6 10 -9 23 -13 33 -9 9 3
23 8 32 11 11 3 14 12 11 29 -3 19 0 24 16 24 12 0 25 -7 30 -15 13 -24 182
43 200 79 13 26 9 46 -9 46 -5 0 -9 -8 -9 -18 0 -20 -39 -62 -57 -62 -6 0 -23
-6 -38 -14 -15 -8 -36 -12 -48 -10 -12 2 -36 6 -52 10 -22 4 -37 0 -54 -15
-35 -31 -57 -27 -65 10 -10 50 -8 54 34 78 37 20 42 21 62 7 28 -20 33 -20 52
0 21 21 20 36 -5 63 l-21 22 -22 -20 c-29 -28 -38 -26 -58 7 -14 24 -14 28 -1
41 13 12 24 12 57 3 34 -9 44 -8 58 5 10 8 17 18 16 22 -3 29 4 33 22 13 26
-27 40 -28 68 -2 28 26 27 31 -1 58 -28 26 -31 27 -51 7z m42 -38 c2 -12 -3
-17 -17 -17 -12 0 -21 6 -21 13 0 31 32 34 38 4z m-118 -153 c0 -14 -21 -19
-33 -7 -9 9 13 34 24 27 5 -3 9 -12 9 -20z"/>
<path d="M422 2208 c-19 -19 -14 -46 13 -64 22 -15 26 -15 40 0 23 22 34 20
45 -8 13 -34 25 -39 66 -24 58 21 93 -24 47 -59 -14 -10 -20 -10 -33 2 -23 21
-46 19 -63 -6 -17 -23 -11 -58 11 -66 8 -4 30 2 48 12 33 18 35 18 56 -1 44
-36 48 -44 35 -72 -20 -48 -37 -55 -66 -26 -26 26 -32 27 -106 11 -33 -7 -124
38 -135 67 -11 30 -30 35 -30 9 1 -24 26 -56 38 -49 6 3 12 2 14 -2 1 -5 34
-21 72 -36 61 -24 71 -25 78 -12 5 9 18 16 28 16 19 0 24 -10 21 -38 -1 -6 10
-17 24 -22 33 -13 31 -13 49 6 9 8 16 11 16 5 0 -5 14 -9 30 -9 26 1 29 4 24
22 -3 12 -12 26 -20 32 -20 16 -17 24 6 24 23 0 26 22 6 39 -8 7 -18 26 -21
42 -5 21 -10 27 -18 21 -7 -5 -23 -6 -37 -2 -27 6 -17 18 21 25 30 6 29 5 17
52 -8 32 -17 45 -43 57 -29 14 -36 14 -60 2 -16 -8 -31 -20 -35 -27 -10 -16
-31 -2 -24 16 4 8 10 13 14 10 14 -9 30 20 19 35 -8 11 -12 12 -16 3 -7 -20
-47 -15 -66 7 -19 23 -47 26 -65 8z m48 -28 c0 -11 -6 -20 -14 -20 -18 0 -29
16 -21 30 11 18 35 11 35 -10z m117 -146 c7 -18 -17 -38 -31 -24 -11 11 -1 40
14 40 6 0 13 -7 17 -16z"/>
<path d="M1349 2203 c-1 -13 -2 -28 -3 -34 -1 -6 16 -17 36 -24 37 -12 39 -9
16 20 -4 6 -17 21 -28 35 l-19 25 -2 -22z"/>
<path d="M1670 2206 c0 -12 -5 -16 -14 -13 -10 4 -13 1 -9 -9 3 -8 -3 -21 -13
-29 -29 -21 -13 -24 27 -6 34 16 35 17 23 46 -9 20 -13 24 -14 11z"/>
<path d="M2070 2210 c0 -5 -6 -10 -14 -10 -28 0 -28 -22 0 -47 27 -23 29 -23
42 -6 7 10 18 17 23 16 5 -2 9 2 9 7 0 14 -13 13 -28 -2 -9 -9 -12 -5 -12 20
0 18 -4 32 -10 32 -5 0 -10 -4 -10 -10z"/>
<path d="M1913 2188 c3 -9 -1 -22 -9 -29 -10 -8 -12 -15 -4 -23 5 -5 10 -19
10 -30 1 -18 3 -17 16 6 8 15 26 31 40 34 32 8 25 29 -10 30 -16 1 -32 7 -38
15 -8 11 -9 11 -5 -3z"/>
<path d="M2248 2188 c-19 -6 -28 -17 -28 -31 0 -17 -2 -19 -9 -8 -11 16 -31 6
-31 -16 0 -10 6 -14 20 -10 17 4 19 1 14 -19 -6 -25 9 -34 22 -13 4 8 9 7 16
-2 7 -10 11 -11 14 -3 3 7 13 10 23 7 14 -4 20 2 23 27 4 29 3 31 -21 25 -14
-4 -29 -12 -33 -18 -4 -6 -11 -8 -15 -3 -4 5 -2 11 5 13 6 3 12 14 12 24 0 11
5 17 10 14 6 -3 10 1 10 9 0 9 -1 16 -2 15 -2 0 -15 -5 -30 -11z"/>
<path d="M755 2182 c-3 -3 4 -16 16 -28 13 -13 18 -28 13 -35 -5 -9 -10 -6
-15 9 -5 13 -17 22 -29 22 -17 0 -21 -5 -18 -27 2 -16 7 -26 12 -25 5 2 12 -2
17 -9 6 -10 11 -10 22 0 10 8 17 9 22 1 12 -20 27 -10 23 15 -4 20 -3 23 8 14
11 -9 14 -6 14 16 0 23 -3 25 -14 16 -12 -10 -15 -8 -18 11 -2 16 -10 23 -25
24 -12 1 -25 -1 -28 -4z"/>
<path d="M1083 2179 c-18 -5 -35 -15 -39 -22 -4 -6 -4 -9 1 -5 4 4 16 3 26 -2
12 -7 19 -6 23 3 3 8 5 7 4 -3 -1 -8 2 -25 6 -38 7 -21 9 -19 32 23 28 54 28
55 9 55 -8 0 -15 -7 -15 -16 0 -8 -5 -12 -10 -9 -6 4 -8 11 -5 16 4 5 5 9 3 8
-2 0 -17 -5 -35 -10z"/>
<path d="M1833 2169 c-4 -13 -8 -17 -13 -9 -5 8 -9 7 -13 -3 -4 -10 7 -24 32
-41 53 -37 68 -34 42 10 -12 19 -21 42 -21 50 0 22 -21 17 -27 -7z"/>
<path d="M1683 2139 c-26 -10 -27 -13 -13 -40 6 -10 20 -19 30 -19 15 0 20 7
20 29 0 36 -8 41 -37 30z"/>
<path d="M1310 2105 c0 -28 3 -33 18 -28 46 16 56 63 12 63 -28 0 -30 -3 -30
-35z"/>
<path d="M997 2124 c-14 -14 -7 -43 12 -54 27 -14 30 -13 24 10 -3 12 0 20 7
20 7 0 10 -7 6 -15 -4 -10 2 -19 17 -25 l22 -9 -22 0 c-13 -1 -23 -5 -23 -10
0 -13 29 -41 41 -41 6 0 3 7 -5 16 -20 20 -21 31 -1 14 21 -17 31 30 13 67
-10 22 -21 29 -48 31 -20 2 -39 0 -43 -4z"/>
<path d="M1956 2121 c-4 -5 0 -12 6 -14 8 -4 7 -6 -3 -6 -36 -2 -29 -85 8 -94
15 -4 15 -5 -3 -6 -18 -1 -21 -7 -20 -43 1 -30 6 -42 19 -44 9 -1 17 3 17 9 0
7 4 6 9 -2 7 -11 1 -19 -22 -30 -33 -17 -46 -38 -23 -38 8 0 12 6 9 12 -7 20
39 26 55 7 13 -16 13 -16 8 1 -3 9 -1 17 4 17 6 0 10 -7 10 -15 0 -8 7 -15 16
-15 23 0 66 48 57 63 -7 12 -8 15 -11 46 -2 11 -8 9 -26 -8 -18 -17 -25 -19
-29 -9 -3 7 -6 8 -6 2 -1 -6 7 -18 16 -25 14 -12 16 -12 8 0 -6 10 -4 12 5 6
9 -6 11 -4 5 5 -5 9 -4 11 4 6 9 -6 9 -11 1 -21 -7 -8 -9 -20 -5 -27 4 -7 0
-5 -8 4 -8 10 -17 15 -20 11 -4 -3 -7 -1 -7 6 0 7 -4 9 -10 6 -5 -3 -10 1 -10
10 0 17 -30 17 -42 0 -4 -5 -6 0 -5 12 0 12 4 21 7 21 25 -2 31 4 24 25 -8 25
-24 38 -38 30 -5 -3 -6 -1 -2 6 4 6 12 9 17 5 5 -3 20 -7 34 -10 19 -3 23 -1
19 11 -5 11 -2 13 10 9 9 -3 16 -1 16 5 0 6 -9 11 -20 11 -11 0 -20 5 -20 10
0 6 5 9 12 8 17 -4 23 33 6 43 -17 12 -65 11 -72 0z"/>
<path d="M1264 2080 c-1 -45 8 -51 23 -17 7 15 7 29 1 40 -15 28 -24 20 -24
-23z"/>
<path d="M1371 2101 c-9 -17 -7 -22 11 -32 13 -7 28 -19 35 -28 10 -14 12 -14
19 2 4 12 0 28 -13 45 -25 34 -39 38 -52 13z"/>
<path d="M1736 2104 c-10 -26 4 -37 25 -18 10 9 16 21 13 25 -9 15 -31 10 -38
-7z"/>
<path d="M1205 2098 c-4 -10 -11 -15 -16 -12 -5 3 -9 0 -9 -5 0 -6 -7 -11 -15
-11 -18 0 -45 -50 -45 -84 0 -20 4 -24 18 -19 35 12 43 24 30 41 -10 13 -10
14 0 8 7 -4 19 -1 27 7 8 9 20 17 27 20 10 3 11 9 1 25 -11 18 -10 20 2 16 8
-4 15 -10 15 -15 0 -5 4 -9 10 -9 5 0 7 7 4 15 -4 8 -12 15 -19 15 -7 0 -15 6
-18 13 -3 8 -7 6 -12 -5z"/>
<path d="M1604 2085 c-9 -14 -13 -32 -10 -41 5 -14 7 -14 22 0 8 9 24 21 34
26 23 12 16 40 -11 40 -10 0 -26 -11 -35 -25z"/>
<path d="M1770 2084 c-19 -19 -22 -26 -12 -36 11 -11 16 -3 14 22 0 3 8 6 18
6 13 0 16 -4 9 -12 -6 -8 1 -19 25 -35 19 -13 32 -27 30 -31 -3 -4 0 -8 6 -8
6 0 8 -5 4 -12 -4 -6 -3 -8 3 -5 6 4 19 0 29 -8 12 -9 13 -13 4 -10 -8 3 -21
1 -29 -4 -16 -10 -6 -31 14 -31 8 0 18 -8 23 -17 7 -12 9 3 8 48 -3 70 -12
109 -26 109 -5 0 -7 -6 -4 -14 3 -8 1 -17 -5 -21 -7 -3 -11 2 -11 15 0 19 -31
55 -48 55 -4 0 -11 3 -17 6 -5 4 -21 -4 -35 -17z"/>
<path d="M1450 2094 c0 -9 24 -30 42 -37 12 -4 15 -2 11 9 -7 20 -53 44 -53
28z"/>
<path d="M1546 2087 c-28 -21 -16 -41 12 -22 22 16 30 35 14 35 -5 0 -16 -6
-26 -13z"/>
<path d="M737 2053 c-7 -7 -10 -43 -3 -43 2 0 16 7 32 14 15 8 31 13 36 10 4
-3 5 2 2 10 -6 16 -54 22 -67 9z"/>
<path d="M2246 2044 c-9 -22 -8 -24 8 -18 8 3 17 1 20 -4 3 -5 -5 -12 -19 -14
-16 -3 -25 -1 -25 7 0 7 -8 19 -17 26 -11 10 -14 10 -9 2 4 -7 2 -13 -3 -13
-6 0 -11 -8 -11 -17 1 -16 2 -16 16 2 9 11 14 13 12 5 -2 -8 5 -24 16 -37 20
-23 20 -23 41 -3 11 11 22 33 23 50 2 26 -1 30 -22 30 -13 0 -27 -7 -30 -16z"/>
<path d="M231 2028 c5 -10 16 -18 24 -18 7 0 13 8 12 18 0 10 -9 17 -23 17
-18 0 -20 -3 -13 -17z"/>
<path d="M1307 2043 c-11 -10 -8 -51 4 -59 6 -3 16 -1 22 5 8 8 8 11 -1 11 -7
0 -12 5 -12 10 0 6 8 10 18 10 22 0 27 -36 6 -44 -22 -9 -7 -26 24 -27 17 -1
21 -3 10 -6 -19 -5 -24 -18 -10 -27 16 -9 30 10 36 48 9 54 -13 86 -58 86 -18
0 -36 -3 -39 -7z"/>
<path d="M1547 2043 c-9 -9 -9 -33 1 -32 26 4 34 -1 22 -16 -10 -12 -10 -18 0
-30 10 -12 10 -15 -3 -15 -8 0 -18 5 -20 10 -3 6 -4 5 -3 -2 1 -7 15 -14 29
-16 24 -3 27 0 24 25 -7 58 -31 95 -50 76z"/>
<path d="M1641 2036 c-19 -22 -21 -106 -3 -106 7 0 10 -4 7 -10 -3 -5 -2 -10
4 -10 6 0 13 11 17 25 3 14 9 23 14 20 14 -9 52 43 48 67 -2 18 -10 24 -39 26
-23 2 -40 -2 -48 -12z m57 -41 c-3 -29 -24 -22 -30 9 -4 19 -1 22 13 19 12 -4
18 -13 17 -28z"/>
<path d="M2764 2033 c3 -8 6 -17 6 -19 0 -11 29 -2 33 10 4 9 -3 16 -19 19
-19 3 -24 1 -20 -10z"/>
<path d="M292 2015 c9 -20 14 -23 31 -13 20 10 20 11 2 24 -31 23 -46 18 -33
-11z"/>
<path d="M2708 2033 c-22 -6 -22 -9 1 -32 17 -17 18 -17 30 0 21 35 13 44 -31
32z"/>
<path d="M761 2011 c-19 -12 -6 -41 17 -41 10 0 29 11 41 24 20 21 21 24 5 22
-10 -2 -21 -11 -26 -22 -7 -16 -8 -16 -4 4 4 23 -9 28 -33 13z"/>
<path d="M1219 2008 c-34 -27 -30 -56 13 -103 38 -42 60 -56 57 -37 -3 18 2
32 12 32 5 0 7 -4 4 -10 -3 -5 -2 -10 4 -10 18 0 21 17 6 30 -21 18 -19 35 3
19 15 -13 16 -12 3 4 -25 32 -46 38 -67 19 -22 -19 -44 -26 -44 -14 0 13 34
42 49 42 18 0 9 34 -9 38 -9 1 -23 -3 -31 -10z"/>
<path d="M1780 2009 c0 -5 -4 -7 -10 -4 -5 3 -10 -1 -10 -9 0 -9 6 -16 13 -16
6 0 21 -7 32 -16 17 -13 18 -16 5 -24 -19 -12 -33 -13 -25 -1 3 6 -4 15 -16
22 -18 9 -25 7 -43 -11 l-21 -23 23 6 c19 4 21 3 11 -9 -6 -8 -19 -14 -28 -14
-13 -1 -12 -3 4 -12 11 -6 24 -17 28 -25 12 -19 22 -16 36 11 7 13 24 30 38
37 20 11 24 18 19 43 -3 16 -11 35 -17 43 -14 16 -39 17 -39 2z"/>
<path d="M2041 2006 c-12 -14 -5 -26 16 -26 15 0 18 26 4 34 -5 3 -14 0 -20
-8z"/>
<path d="M1439 2003 c-1 -9 -6 -33 -10 -52 -2 -7 2 -16 9 -18 6 -3 12 0 12 5
0 6 10 8 23 5 15 -3 18 -2 9 5 -7 5 -12 13 -11 18 3 14 -12 44 -22 44 -5 0 -9
-3 -10 -7z"/>
<path d="M263 1986 c3 -7 1 -18 -5 -24 -6 -6 -7 -15 -3 -21 9 -16 25 -3 18 14
-3 8 0 15 6 15 6 0 11 7 11 15 0 8 -7 15 -16 15 -10 0 -14 -6 -11 -14z"/>
<path d="M1030 1987 c0 -6 12 -22 28 -34 15 -13 23 -22 17 -21 -5 2 -11 0 -12
-4 -6 -17 -2 -20 12 -8 17 14 21 75 5 65 -6 -4 -7 -11 -4 -17 4 -7 2 -8 -5 -4
-6 4 -9 11 -6 16 3 4 -4 10 -15 13 -11 3 -20 0 -20 -6z"/>
<path d="M2745 1991 c-3 -5 -1 -12 5 -16 5 -3 10 -16 10 -28 0 -16 3 -18 12
-9 9 9 9 15 1 23 -6 6 -9 18 -6 25 6 16 -13 19 -22 5z"/>
<path d="M179 1977 c6 -8 8 -17 4 -20 -3 -4 1 -7 9 -7 17 0 31 24 21 34 -4 3
-15 6 -26 6 -15 0 -17 -3 -8 -13z"/>
<path d="M928 1963 c5 -25 17 -30 28 -11 4 6 2 14 -4 16 -7 2 -10 7 -8 11 3 4
-1 8 -8 8 -8 0 -11 -9 -8 -24z"/>
<path d="M837 1965 c-8 -8 -17 -12 -19 -9 -6 6 -26 -41 -33 -75 -3 -16 2 -30
16 -42 20 -17 23 -17 57 -1 21 9 39 18 41 19 6 4 -18 28 -30 29 -5 1 -12 2
-15 3 -4 0 -1 7 6 15 6 8 17 13 25 10 19 -8 28 12 16 35 -8 13 -17 17 -32 14
-15 -4 -20 -3 -15 5 10 17 0 15 -17 -3z"/>
<path d="M2159 1972 c-1 -4 -1 -11 0 -15 1 -4 -6 -7 -15 -5 -11 2 -18 -5 -20
-21 -4 -19 -1 -22 16 -18 31 8 44 -17 20 -38 -18 -17 -19 -20 -5 -28 28 -15
61 -17 80 -3 36 26 -1 109 -57 129 -10 4 -19 3 -19 -1z"/>
<path d="M2816 1966 c8 -20 31 -27 37 -11 7 17 -1 25 -24 25 -12 0 -16 -5 -13
-14z"/>
<path d="M1016 1944 c-13 -34 -7 -52 17 -48 12 2 15 1 7 -2 -8 -4 -20 -10 -25
-15 -10 -7 -13 3 -17 49 -1 6 -5 12 -10 12 -4 0 -8 -6 -8 -12 0 -9 -4 -8 -10
2 -8 12 -10 12 -11 -5 0 -11 -3 -14 -6 -7 -8 19 -23 14 -23 -8 0 -22 20 -26
38 -8 9 9 12 9 12 1 0 -7 -5 -15 -10 -18 -19 -12 1 -25 28 -19 15 3 34 6 44 6
16 -1 18 13 5 36 -5 6 -6 16 -3 21 3 5 0 14 -8 20 -11 9 -15 8 -20 -5z"/>
<path d="M1126 1944 c-9 -8 -16 -23 -16 -32 0 -15 2 -15 10 -2 5 8 10 11 10 7
0 -14 40 14 40 28 0 20 -25 19 -44 -1z"/>
<path d="M208 1939 c-16 -9 -16 -11 0 -27 13 -14 20 -15 29 -6 7 7 10 20 7 28
-7 18 -12 19 -36 5z"/>
<path d="M2796 1941 c-6 -9 2 -41 11 -41 2 0 11 6 18 14 10 10 11 16 2 25 -13
13 -24 14 -31 2z"/>
<path d="M315 1911 c3 -17 2 -32 -4 -36 -6 -3 -12 -1 -12 4 -1 6 -2 17 -3 24
-2 13 -24 11 -44 -5 -21 -18 54 -41 79 -25 11 7 19 15 19 19 0 10 51 1 97 -17
35 -14 54 -33 54 -55 0 -3 8 -13 17 -23 13 -15 25 -17 59 -12 26 4 43 2 43 -4
0 -13 -29 -41 -43 -41 -6 0 -23 -11 -37 -25 l-26 -25 -17 39 c-21 48 -41 57
-67 31 -25 -25 -25 -35 0 -60 23 -23 26 -53 6 -69 -17 -14 -48 0 -81 37 -27
29 -37 28 -29 -5 9 -33 53 -76 71 -69 7 3 13 1 13 -4 0 -17 70 -12 71 5 1 8 2
21 3 28 1 6 -1 24 -5 40 -10 37 5 35 21 -3 16 -38 25 -44 50 -30 24 13 26 37
4 61 -15 17 -14 18 19 12 33 -5 38 -2 56 28 21 34 21 34 21 8 0 -15 7 -29 15
-33 17 -6 21 -36 5 -36 -5 0 -10 7 -10 15 0 8 -5 15 -11 15 -5 0 -2 -13 8 -30
9 -16 21 -30 25 -30 4 0 8 -9 8 -20 0 -24 13 -26 30 -5 7 8 19 15 27 15 22 0
26 26 8 59 -9 19 -23 31 -36 31 -11 0 -18 4 -15 9 11 18 -6 42 -25 36 -14 -5
-19 -1 -19 13 0 20 -24 45 -53 56 -13 4 -25 -1 -36 -16 -25 -30 -55 -18 -48
20 5 26 2 28 -66 50 -40 13 -80 25 -90 26 -9 1 -23 8 -29 14 -20 20 -30 13
-23 -17z m155 -181 c0 -23 -25 -27 -33 -6 -7 16 1 26 20 26 7 0 13 -9 13 -20z"/>
<path d="M2700 1926 c0 -9 -7 -12 -18 -9 -9 2 -53 -9 -97 -25 -66 -25 -80 -34
-78 -50 1 -11 -5 -26 -13 -33 -14 -11 -19 -10 -34 9 -19 23 -40 22 -72 -6 -19
-16 -25 -52 -8 -52 5 0 12 -11 16 -25 6 -23 15 -30 37 -26 4 0 7 -4 7 -11 0
-9 3 -9 12 0 7 7 18 12 24 12 10 0 10 -6 -1 -27 -10 -19 -11 -32 -4 -45 13
-25 40 -19 55 10 6 13 17 29 23 35 14 14 15 -11 1 -49 -9 -22 -7 -29 10 -44
18 -16 23 -16 66 -2 28 9 49 23 52 34 2 10 8 16 12 13 6 -4 30 45 30 61 0 5
-37 -26 -59 -48 -15 -15 -40 -22 -67 -19 -14 1 -5 57 12 72 19 15 18 38 -2 60
-16 18 -18 18 -45 2 -18 -11 -29 -26 -29 -40 l0 -22 -55 27 c-35 17 -55 33
-55 45 0 15 6 16 39 11 38 -6 40 -4 65 34 42 66 139 99 179 61 18 -16 23 -17
47 -4 15 8 31 11 36 7 5 -4 2 1 -5 11 -18 23 -38 22 -46 -4 -5 -15 -10 -18
-18 -10 -8 8 -8 14 1 23 17 17 15 38 -3 38 -8 0 -15 -6 -15 -14z m-105 -196
c0 -8 -8 -16 -17 -18 -13 -2 -18 3 -18 18 0 15 5 20 18 18 9 -2 17 -10 17 -18z"/>
<path d="M1160 1889 c0 -5 -4 -7 -10 -4 -5 3 -10 -1 -10 -9 0 -19 11 -21 28
-4 14 14 38 -3 47 -33 4 -10 11 -19 16 -19 6 0 6 7 -1 19 -5 11 -10 29 -10 40
0 17 -6 21 -30 21 -16 0 -30 -5 -30 -11z"/>
<path d="M1435 1886 c-69 -17 -149 -62 -190 -108 -60 -66 -88 -133 -93 -224
-5 -102 13 -170 67 -246 95 -132 272 -185 426 -127 84 31 183 130 214 214 31
83 27 205 -11 285 -51 109 -146 184 -266 209 -64 13 -82 13 -147 -3z m208 -55
c43 -19 121 -82 82 -66 -11 5 -45 11 -76 13 -52 3 -59 1 -94 -29 -24 -21 -39
-29 -44 -21 -14 23 -64 40 -105 36 -57 -5 -80 -20 -106 -66 -24 -42 -24 -87 0
-144 13 -31 12 -33 -39 -84 -68 -68 -78 -57 -72 90 7 209 260 360 454 271z
m87 -116 c34 -33 40 -86 14 -123 -15 -21 -14 -22 19 -22 40 0 54 -21 30 -45
-11 -11 -25 -14 -45 -10 l-29 7 1 -109 c2 -154 3 -145 -22 -141 -22 3 -23 8
-28 123 l-5 120 -27 2 c-25 1 -27 -2 -37 -61 -6 -34 -11 -87 -11 -117 0 -63
-13 -83 -43 -68 -17 10 -19 18 -13 68 6 54 6 55 -11 35 -36 -44 -114 -103
-128 -98 -34 13 -16 52 45 98 34 25 60 49 58 53 -1 4 -21 20 -43 35 -39 26
-41 27 -55 9 -8 -10 -39 -39 -68 -65 -44 -39 -56 -45 -72 -36 -37 20 -24 38
92 131 20 15 19 16 -6 54 -15 22 -26 52 -26 72 0 40 23 88 45 97 33 12 93 6
116 -13 33 -27 34 -103 2 -148 -13 -17 -23 -33 -23 -35 0 -3 20 -19 45 -37 25
-18 45 -28 45 -22 0 5 3 16 6 25 5 12 0 16 -20 16 -31 0 -44 24 -25 46 10 13
24 15 64 10 l50 -7 -27 23 c-38 32 -51 72 -38 114 15 44 35 55 93 51 36 -3 55
-11 77 -32z m94 -77 c7 -18 17 -46 20 -63 l8 -30 -30 28 c-18 17 -28 36 -26
50 1 12 3 28 3 35 2 21 12 13 25 -20z m20 -161 c-4 -37 -61 -157 -74 -157 -4
0 -10 30 -12 68 l-4 67 40 37 c44 39 55 35 50 -15z m-414 -52 c0 -3 -18 -24
-40 -46 -44 -45 -51 -80 -23 -111 21 -23 44 -23 94 3 l40 20 20 -25 c11 -15
28 -26 37 -26 19 0 62 39 62 57 0 24 15 13 33 -24 20 -40 17 -46 -33 -62 -126
-40 -249 -10 -340 84 -31 32 -30 41 2 36 4 0 36 21 70 49 59 46 78 57 78 45z"/>
<path d="M1623 1693 c-23 -9 -14 -49 19 -82 l32 -33 18 22 c28 34 23 67 -12
85 -30 16 -37 17 -57 8z"/>
<path d="M1377 1648 c-6 -21 14 -71 33 -83 12 -8 40 47 40 80 0 22 -4 25 -34
25 -26 0 -35 -5 -39 -22z"/>
<path d="M1810 1884 c0 -7 -6 -19 -14 -26 -11 -12 -11 -17 1 -34 9 -10 13 -13
11 -5 -7 23 34 59 55 48 22 -10 32 -4 23 18 -7 19 -76 18 -76 -1z"/>
<path d="M2122 1888 c-6 -6 -12 -16 -12 -20 0 -14 27 -8 41 9 8 9 9 14 2 10
-6 -4 -13 -2 -15 3 -2 7 -8 6 -16 -2z"/>
<path d="M905 1830 c-16 -4 -40 -12 -52 -18 -12 -7 -30 -12 -41 -12 -20 0 -58
-47 -47 -58 3 -4 10 -1 14 6 4 7 22 14 39 15 18 1 32 6 32 10 0 5 5 5 10 2 6
-3 10 -2 10 4 0 6 7 8 15 5 10 -4 15 0 15 11 0 16 3 15 20 -5 11 -12 17 -27
14 -31 -3 -5 4 -9 15 -9 28 0 47 36 29 58 -9 11 -10 14 0 8 6 -4 12 -2 12 3 0
6 -6 11 -12 12 -7 0 -20 2 -28 3 -8 2 -28 0 -45 -4z"/>
<path d="M1005 1820 c-20 -22 -15 -24 35 -20 37 3 45 11 25 27 -26 18 -39 16
-60 -7z"/>
<path d="M1955 1824 c-18 -14 -19 -14 58 -29 20 -4 23 18 5 32 -17 14 -42 12
-63 -3z"/>
<path d="M2090 1833 c-18 -7 -50 -34 -50 -43 0 -3 9 -16 21 -29 17 -18 24 -20
35 -10 8 6 12 20 9 30 -3 9 -1 20 5 24 5 3 10 1 10 -5 0 -13 48 -34 72 -31 10
1 26 -2 36 -8 10 -5 24 -6 30 -2 21 12 -23 44 -52 39 -14 -3 -23 -2 -21 2 2 4
-12 14 -31 23 -37 18 -40 19 -64 10z"/>
<path d="M748 1823 c0 -5 -2 -15 -2 -23 -1 -8 -7 -14 -14 -12 -13 2 -17 -30
-5 -42 6 -6 43 58 43 76 0 10 -19 11 -22 1z"/>
<path d="M2260 1821 c0 -14 34 -71 43 -71 4 0 7 9 7 20 0 11 -7 20 -15 20 -8
0 -15 5 -15 11 0 5 6 7 13 3 8 -5 8 -2 -2 9 -15 18 -31 23 -31 8z"/>
<path d="M1083 1780 c-47 -19 -20 -80 32 -76 46 4 56 36 23 70 -19 18 -24 19
-55 6z"/>
<path d="M1906 1775 c-8 -9 -19 -15 -23 -15 -4 1 -9 -6 -11 -15 -4 -18 16 -47
28 -40 5 3 11 -1 13 -7 4 -10 8 -9 16 2 6 8 11 11 11 6 0 -5 7 -3 16 5 24 20
4 78 -28 79 -4 0 -13 -7 -22 -15z"/>
<path d="M1040 1772 c0 -6 -6 -9 -13 -6 -8 3 -19 -2 -26 -10 -10 -12 -8 -17 9
-26 12 -6 24 -9 28 -6 3 3 2 6 -2 6 -4 0 -2 9 4 21 7 11 9 23 6 27 -3 3 -6 0
-6 -6z"/>
<path d="M1992 1745 c3 -29 3 -29 29 -14 16 8 18 13 8 25 -19 23 -39 17 -37
-11z"/>
<path d="M2334 1755 c3 -8 0 -15 -5 -15 -7 0 -9 -10 -6 -22 6 -21 5 -22 -7 -5
-13 17 -15 15 -35 -16 -28 -46 -27 -67 3 -67 13 0 26 -7 30 -15 9 -24 23 -18
40 17 15 29 15 33 1 40 -20 12 -19 36 2 34 24 -2 29 35 7 51 -24 17 -37 17
-30 -2z"/>
<path d="M870 1744 c-6 -6 -7 -14 -3 -17 3 -4 1 -7 -5 -7 -17 0 -15 -47 2 -53
8 -3 18 5 25 19 9 20 16 24 34 19 14 -4 18 -3 9 3 -7 5 -12 13 -11 18 6 32
-29 45 -51 18z"/>
<path d="M2123 1754 c4 -4 -3 -16 -16 -27 -21 -18 -21 -19 -2 -13 16 5 25 -1
39 -26 17 -28 20 -30 31 -14 16 22 8 53 -18 71 -21 15 -46 21 -34 9z"/>
<path d="M2250 1741 c0 -4 -11 -6 -25 -3 -23 4 -25 2 -21 -23 3 -15 7 -30 10
-32 10 -10 38 7 33 20 -2 6 2 20 11 30 10 11 11 17 4 17 -7 0 -12 -4 -12 -9z"/>
<path d="M785 1730 c-7 -12 24 -80 37 -80 5 0 7 -4 4 -8 -3 -5 10 -16 28 -24
26 -13 33 -13 33 -3 0 8 -7 11 -15 7 -11 -4 -14 -1 -9 12 5 11 0 20 -16 27
-19 8 -23 17 -21 45 3 28 0 34 -16 34 -10 0 -22 -4 -25 -10z"/>
<path d="M969 1693 c-14 -38 3 -73 35 -73 30 0 82 42 72 58 -11 19 -33 14 -39
-8 -3 -13 -10 -18 -21 -14 -18 7 -22 24 -6 24 16 0 11 27 -6 34 -23 9 -24 8
-35 -21z"/>
<path d="M2020 1708 c-22 -8 -23 -10 -7 -19 23 -14 22 -29 -4 -29 -11 0 -17 5
-14 10 9 15 -25 25 -38 11 -9 -10 -6 -18 16 -37 45 -39 97 -28 97 21 0 36 -21
55 -50 43z"/>
<path d="M2090 1670 c0 -16 -8 -38 -18 -48 -17 -17 -17 -20 -3 -29 11 -8 3 -8
-29 -2 -60 11 -62 11 -55 -2 4 -6 10 -8 13 -5 3 3 12 -3 19 -14 14 -20 15 -20
55 2 23 13 47 37 56 55 14 30 14 34 -3 53 -25 28 -35 25 -35 -10z"/>
<path d="M290 1676 c0 -8 -6 -17 -12 -19 -10 -4 -9 -8 2 -16 8 -6 18 -11 23
-11 11 0 9 48 -3 55 -5 3 -10 0 -10 -9z"/>
<path d="M899 1669 c-9 -18 -7 -26 8 -48 31 -42 83 -73 99 -60 24 20 15 31
-21 27 -24 -3 -31 -1 -25 7 6 8 4 18 -8 31 -9 10 -16 29 -14 42 4 29 -23 30
-39 1z"/>
<path d="M2732 1678 c-13 -13 -16 -48 -4 -48 4 0 14 5 22 10 13 8 13 11 1 19
-7 5 -10 14 -7 20 9 15 3 14 -12 -1z"/>
<path d="M595 1659 c-5 -15 1 -29 21 -50 35 -37 53 -38 46 -1 -11 61 -54 93
-67 51z"/>
<path d="M2177 1654 c-39 -34 -30 -45 16 -19 29 17 35 24 25 33 -10 8 -20 4
-41 -14z"/>
<path d="M2388 1653 c-7 -16 -12 -32 -13 -38 0 -5 -5 -17 -10 -25 -7 -12 -6
-13 7 -3 8 7 18 10 21 6 13 -12 37 18 28 36 -10 19 -3 44 10 35 5 -3 9 0 9 5
0 24 -41 10 -52 -16z"/>
<path d="M1060 1615 c-25 -18 -29 -25 -16 -25 12 0 16 -5 13 -15 -8 -20 12
-30 28 -14 7 8 17 29 23 47 14 40 0 42 -48 7z"/>
<path d="M1916 1625 c-3 -8 -2 -15 3 -15 5 0 8 -8 7 -17 -1 -12 5 -17 19 -16
11 1 14 0 8 -3 -7 -3 -13 -13 -13 -21 0 -14 2 -14 19 1 21 19 17 53 -8 73 -21
16 -28 16 -35 -2z"/>
<path d="M770 1620 c0 -5 6 -10 13 -11 6 0 2 -5 -10 -11 -13 -6 -23 -17 -23
-24 0 -9 8 -12 23 -10 12 2 21 9 19 16 -1 6 2 9 7 6 15 -10 24 14 11 29 -14
17 -40 20 -40 5z"/>
<path d="M2230 1614 c0 -8 -4 -12 -10 -9 -11 7 -42 -8 -76 -38 -33 -28 -30
-39 9 -35 19 2 31 8 30 16 -2 6 2 12 7 12 6 0 10 6 10 14 0 24 21 30 27 7 3
-12 10 -21 15 -21 5 0 6 9 3 20 -4 13 -1 22 9 26 18 7 11 24 -10 24 -8 0 -14
-7 -14 -16z"/>
<path d="M2747 1619 c-11 -6 -16 -18 -13 -32 12 -62 33 -73 59 -33 15 22 15
24 -5 29 -15 4 -19 11 -15 26 6 23 0 25 -26 10z"/>
<path d="M263 1607 c4 -11 -1 -18 -14 -22 -13 -4 -18 -12 -15 -22 3 -8 6 -18
6 -23 0 -15 41 -7 50 10 14 27 6 64 -14 68 -14 3 -17 0 -13 -11z"/>
<path d="M556 1600 c-15 -5 -16 -8 -4 -17 7 -6 20 -13 28 -15 8 -2 18 -7 21
-12 4 -5 11 -7 17 -5 19 7 -42 56 -62 49z"/>
<path d="M2450 1590 c-31 -31 -23 -44 13 -19 17 12 33 23 35 25 2 1 -4 4 -13
8 -9 3 -24 -3 -35 -14z"/>
<path d="M830 1588 c1 -27 36 -60 60 -56 38 5 37 28 -2 29 -18 0 -27 3 -20 6
10 4 10 8 1 19 -14 17 -39 18 -39 2z"/>
<path d="M320 1560 c0 -26 4 -30 28 -30 45 0 57 20 24 42 -39 26 -52 23 -52
-12z"/>
<path d="M2665 1574 c-11 -8 -20 -23 -21 -34 -1 -16 4 -18 30 -13 41 7 49 16
41 42 -7 25 -22 26 -50 5z"/>
<path d="M154 1553 c14 -29 80 -34 74 -5 -2 12 -16 19 -44 22 -39 6 -40 5 -30
-17z"/>
<path d="M498 1569 c-10 -5 -18 -17 -18 -24 0 -11 13 -15 53 -15 l52 0 -30 25
c-34 28 -34 28 -57 14z"/>
<path d="M2495 1560 c-10 -11 -21 -17 -26 -15 -4 3 -10 1 -14 -5 -4 -6 13 -10
44 -10 54 0 70 19 32 39 -14 8 -23 6 -36 -9z"/>
<path d="M2840 1566 c-6 -6 -10 -6 -10 -2 0 5 -7 3 -15 -4 -24 -20 -18 -30 18
-30 26 0 36 6 45 24 10 22 9 25 -9 23 -10 -1 -24 -6 -29 -11z"/>
<path d="M1977 1543 c-12 -12 -7 -41 7 -46 13 -5 45 19 35 26 -2 1 -11 8 -20
15 -9 6 -19 9 -22 5z"/>
<path d="M2580 1539 c0 -5 -5 -7 -12 -3 -7 4 -8 3 -4 -4 5 -9 13 -9 27 -2 13
7 19 7 19 0 0 -5 4 -10 10 -10 5 0 7 7 4 15 -7 17 -44 21 -44 4z"/>
<path d="M2928 1543 c0 -5 -2 -15 -2 -23 -1 -8 -9 -14 -19 -12 -21 4 -22 -11
-2 -28 12 -10 15 -10 15 4 0 9 4 16 9 16 5 0 9 11 9 25 0 23 -6 34 -10 18z"/>
<path d="M936 1525 c-11 -30 -6 -34 24 -24 17 6 30 15 30 21 0 6 -6 8 -14 5
-7 -3 -18 -1 -23 4 -7 7 -13 5 -17 -6z"/>
<path d="M1017 1526 c-3 -8 1 -20 8 -26 11 -9 18 -8 31 5 15 14 15 18 3 26
-21 13 -36 11 -42 -5z"/>
<path d="M2068 1529 c-6 -4 -16 -5 -20 -3 -4 3 -8 0 -8 -5 0 -6 3 -11 8 -12 4
0 17 -2 28 -5 15 -2 23 2 27 15 4 19 -12 24 -35 10z"/>
<path d="M90 1515 c0 -10 27 -35 38 -35 6 0 12 7 16 15 3 9 0 15 -8 15 -8 0
-21 3 -30 6 -9 3 -16 3 -16 -1z"/>
<path d="M450 1511 c0 -5 -9 -7 -20 -4 -13 4 -20 0 -20 -9 0 -11 7 -14 25 -10
14 2 25 11 25 18 0 8 -2 14 -5 14 -3 0 -5 -4 -5 -9z"/>
<path d="M857 1513 c-4 -3 -2 -12 5 -20 6 -8 7 -13 2 -11 -5 2 -11 -1 -12 -7
-2 -5 -8 -16 -14 -23 -6 -7 -8 -16 -4 -20 4 -4 13 0 19 9 7 9 14 16 17 15 3 0
15 7 28 15 14 11 20 22 16 33 -6 16 -44 22 -57 9z"/>
<path d="M2123 1513 c-15 -6 -17 -23 -3 -23 5 0 23 -13 38 -30 16 -16 36 -30
45 -30 9 0 19 -4 22 -10 10 -17 48 -12 42 5 -4 8 -2 17 3 20 17 10 -1 33 -25
33 -15 0 -27 -8 -30 -19 -4 -11 -11 -19 -16 -19 -6 0 -8 4 -5 9 4 5 3 16 0 25
-5 13 -10 13 -27 4 -19 -10 -20 -9 -10 4 7 8 10 18 6 22 -4 4 1 4 11 0 14 -5
17 -4 12 4 -7 12 -40 15 -63 5z"/>
<path d="M158 1486 c-4 -22 -3 -23 23 -16 59 17 68 40 15 40 -28 0 -34 -4 -38
-24z"/>
<path d="M246 1494 c-20 -19 -21 -34 -2 -34 19 0 27 -25 13 -39 -14 -14 -2
-14 24 -1 14 8 18 19 15 42 -4 38 -28 54 -50 32z"/>
<path d="M316 1494 c-3 -8 -1 -23 6 -33 10 -17 13 -17 39 -2 41 23 38 47 -5
49 -22 1 -36 -4 -40 -14z"/>
<path d="M480 1497 c0 -8 8 -21 18 -31 18 -15 20 -15 42 4 13 11 27 20 32 20
4 0 8 5 8 10 0 6 -22 10 -50 10 -35 0 -50 -4 -50 -13z"/>
<path d="M2450 1501 c0 -5 8 -11 18 -15 9 -3 25 -11 34 -18 14 -10 21 -9 37 6
32 29 26 36 -34 36 -30 0 -55 -4 -55 -9z"/>
<path d="M2650 1494 c0 -9 -5 -12 -12 -8 -7 4 -8 3 -4 -4 4 -7 12 -12 17 -12
6 0 17 -7 25 -15 22 -21 31 -19 38 10 9 35 1 45 -35 45 -20 0 -29 -5 -29 -16z"/>
<path d="M2764 1502 c-29 -4 -40 -61 -16 -79 23 -19 35 -16 29 8 -4 14 0 22
13 27 15 6 17 10 7 27 -8 13 -20 19 -33 17z"/>
<path d="M2800 1501 c0 -13 16 -22 56 -31 19 -5 34 -4 34 1 0 5 -4 9 -10 9 -5
0 -9 6 -7 13 1 7 -12 13 -35 15 -21 2 -38 -1 -38 -7z"/>
<path d="M754 1461 c-6 -29 -8 -30 -20 -14 -7 10 -14 13 -14 7 0 -16 27 -37
39 -30 5 3 12 -1 15 -9 5 -13 9 -13 26 -3 11 7 18 19 15 27 -3 8 0 18 7 22 10
7 10 11 0 21 -8 7 -12 9 -10 3 2 -5 0 -10 -4 -10 -4 0 -14 -9 -22 -20 -15 -20
-15 -20 -10 1 3 12 1 25 -5 29 -7 4 -14 -6 -17 -24z"/>
<path d="M1937 1472 c-13 -14 -17 -28 -12 -43 5 -14 4 -19 -4 -15 -6 4 -11 1
-11 -8 0 -18 23 -12 59 16 13 10 35 18 50 18 33 0 56 14 47 29 -10 15 -46 14
-52 -2 -5 -15 -34 -19 -34 -5 0 5 -4 7 -9 3 -5 -3 -11 2 -13 11 -3 14 -6 13
-21 -4z"/>
<path d="M934 1443 c-36 -39 -40 -53 -24 -84 17 -31 33 -23 28 15 -2 19 -1 33
3 30 4 -2 12 3 18 10 8 10 9 16 1 21 -5 3 -10 11 -10 16 0 6 5 7 11 3 6 -4 24
-8 40 -9 25 -2 27 0 18 16 -15 29 -48 22 -85 -18z"/>
<path d="M1058 1466 c-25 -18 -22 -28 14 -53 37 -26 48 -22 42 15 -9 56 -22
65 -56 38z"/>
<path d="M388 1449 c-15 -6 -30 -19 -33 -30 -4 -10 -10 -19 -14 -19 -7 0 -31
-43 -31 -55 0 -5 30 19 55 42 19 18 65 34 76 27 16 -10 9 -61 -11 -79 -25 -23
-25 -37 0 -60 18 -17 21 -17 45 -1 14 9 25 25 25 36 0 11 2 20 4 20 14 0 96
-43 106 -55 18 -22 6 -29 -41 -26 -43 2 -68 -16 -69 -50 0 -10 -20 -22 -57
-33 -32 -10 -64 -21 -72 -24 -10 -4 -12 -1 -6 7 6 10 3 11 -15 1 -20 -11 -22
-10 -17 3 8 22 -15 27 -56 13 -22 -7 -33 -16 -29 -23 10 -15 48 -21 45 -6 -1
6 5 17 14 25 15 12 15 9 9 -23 l-6 -35 110 35 c104 34 109 37 110 64 0 21 5
27 21 27 12 0 23 -8 26 -19 5 -19 7 -19 39 -4 41 20 51 46 31 77 -31 47 -48
57 -81 50 -31 -6 -31 -6 -12 14 21 24 16 46 -14 62 -18 10 -22 7 -35 -24 -9
-20 -20 -36 -25 -36 -12 0 -12 0 1 38 21 61 -20 87 -93 61z m82 -143 c0 -8 -4
-17 -8 -20 -13 -8 -35 11 -28 23 10 16 36 14 36 -3z"/>
<path d="M550 1450 c-12 -8 -12 -10 2 -15 19 -7 38 1 38 16 0 12 -21 11 -40
-1z"/>
<path d="M2549 1438 c-1 -13 -1 -25 -1 -28 -1 -3 2 -17 6 -32 9 -37 -8 -36
-24 2 -9 22 -19 30 -37 30 -13 0 -22 -4 -18 -9 3 -5 1 -13 -5 -16 -8 -5 -6
-15 5 -31 16 -24 16 -24 -18 -20 -28 3 -38 -1 -54 -22 -40 -55 -35 -87 19
-109 23 -10 27 -9 31 8 3 11 14 19 27 19 17 0 21 -5 18 -26 -3 -25 2 -28 82
-55 52 -18 97 -27 115 -24 19 3 25 2 16 -4 -8 -5 -9 -11 -3 -15 17 -10 24 12
12 34 -6 11 -8 26 -4 33 4 6 -1 4 -12 -5 -10 -9 -30 -18 -44 -20 -33 -4 -130
32 -130 49 0 8 -11 25 -25 39 -21 21 -28 23 -46 14 -15 -9 -24 -8 -35 1 -13
10 -12 14 2 30 10 11 24 19 32 19 7 0 27 9 43 21 28 19 35 16 30 -15 -3 -14
31 -46 49 -46 19 0 40 19 40 37 0 8 -9 26 -20 42 -17 22 -19 32 -11 54 12 32
14 32 46 11 13 -9 30 -12 36 -8 7 4 9 3 6 -3 -4 -5 5 -20 20 -33 20 -17 25
-19 20 -5 -4 9 -7 20 -7 24 0 16 -46 60 -73 70 -16 6 -42 11 -58 11 -23 0 -29
-5 -30 -22z m46 -138 c0 -22 -29 -18 -33 3 -3 14 1 18 15 15 10 -2 18 -10 18
-18z"/>
<path d="M632 1439 c-13 -5 -22 -15 -19 -21 2 -7 -3 -21 -11 -31 -14 -16 -14
-19 -2 -27 23 -15 27 -13 49 33 30 61 28 65 -17 46z"/>
<path d="M2065 1440 c-3 -5 1 -17 9 -26 9 -8 16 -29 16 -45 0 -37 26 -39 42
-4 10 22 8 30 -9 53 -22 29 -47 39 -58 22z"/>
<path d="M682 1406 c-26 -45 -27 -46 -4 -46 14 0 15 -2 2 -10 -13 -9 -13 -10
0 -11 9 0 6 -4 -8 -11 -17 -8 -21 -17 -16 -32 4 -12 11 -24 17 -28 15 -9 29 1
21 14 -4 6 -2 8 4 4 6 -3 14 3 17 15 4 11 9 18 13 15 7 -8 42 50 42 69 0 8 -7
15 -16 15 -9 0 -24 10 -33 21 l-17 22 -22 -37z"/>
<path d="M2316 1425 c-3 -8 -17 -17 -31 -21 -29 -7 -30 -14 -10 -54 9 -18 24
-30 35 -30 10 0 22 -5 26 -12 5 -7 3 -8 -6 -3 -10 6 -12 4 -7 -9 4 -10 7 -20
7 -22 0 -12 39 -2 44 12 10 26 7 44 -9 44 -9 0 -12 -6 -8 -17 3 -10 3 -15 -1
-12 -4 4 -8 15 -10 26 -4 17 0 19 22 16 26 -4 27 -4 7 12 -11 9 -19 18 -18 20
4 8 -10 39 -23 52 -9 10 -13 9 -18 -2z"/>
<path d="M2370 1428 c0 -21 43 -84 47 -70 3 6 9 10 14 6 5 -3 9 -1 9 5 0 5 3
16 6 25 4 11 1 16 -10 16 -9 0 -16 -4 -16 -10 0 -5 -5 -10 -12 -10 -9 0 -9 3
0 12 20 20 14 38 -13 38 -14 0 -25 -6 -25 -12z"/>
<path d="M2180 1404 l25 -28 -27 17 c-16 10 -28 13 -28 7 0 -6 11 -16 25 -22
14 -6 25 -18 26 -27 0 -11 2 -12 6 -3 2 6 9 9 14 6 6 -3 3 -11 -7 -19 -23 -16
-11 -49 15 -42 13 3 18 0 15 -8 -7 -18 -64 -28 -80 -14 -11 9 -14 8 -14 -2 0
-8 -9 -20 -20 -27 -19 -11 -22 -10 -31 18 -13 35 -20 37 -44 10 -11 -13 -15
-25 -10 -37 5 -10 8 -20 7 -23 -1 -8 50 -5 68 3 8 4 26 9 40 11 14 3 27 5 30
6 3 2 9 2 14 1 16 -3 54 21 61 37 3 8 -2 23 -10 32 -9 10 -15 21 -14 26 5 23
-25 71 -54 87 l-32 19 25 -28z"/>
<path d="M293 1413 c-15 -6 -17 -39 -3 -48 12 -7 23 17 18 38 -1 8 -9 12 -15
10z"/>
<path d="M860 1414 c0 -6 -14 -14 -30 -18 -27 -5 -30 -9 -24 -31 4 -18 2 -25
-8 -25 -10 0 -13 -9 -10 -30 4 -25 7 -28 22 -20 12 6 17 19 15 35 -2 18 6 32
26 48 21 16 26 26 19 37 -5 8 -10 10 -10 4z"/>
<path d="M976 1404 c-9 -8 -16 -22 -16 -30 0 -24 19 -54 35 -54 20 0 29 19 16
34 -12 14 -5 26 17 26 8 0 12 -6 9 -15 -7 -18 6 -27 27 -19 24 9 19 30 -13 53
-35 25 -54 26 -75 5z"/>
<path d="M1973 1396 c-26 -23 -27 -26 -11 -42 16 -16 44 -11 33 6 -7 12 12 23
25 15 8 -5 7 -12 -1 -22 -10 -12 -10 -16 2 -24 21 -13 36 -11 43 7 10 27 7 52
-10 68 -22 23 -49 20 -81 -8z"/>
<path d="M2724 1395 c-9 -22 5 -38 22 -24 18 15 18 25 -1 33 -9 3 -18 -1 -21
-9z"/>
<path d="M1122 1378 c-7 -7 -12 -18 -12 -25 0 -7 -11 -19 -25 -25 -26 -12 -33
-32 -15 -43 6 -4 8 -10 5 -15 -3 -5 -1 -11 5 -15 5 -3 10 -1 10 4 0 6 11 11
25 11 14 0 25 5 25 10 0 6 3 9 8 9 18 -3 32 2 32 12 0 5 -4 8 -9 5 -4 -3 -13
6 -19 19 -7 14 -17 25 -23 25 -8 0 -8 5 1 15 16 19 8 29 -8 13z"/>
<path d="M852 1357 c-13 -15 3 -54 29 -70 12 -7 21 -5 36 10 l21 21 -24 11
c-14 6 -27 18 -30 26 -7 18 -18 19 -32 2z"/>
<path d="M2150 1360 c0 -6 -14 -19 -31 -29 -24 -15 -27 -20 -14 -25 9 -3 14
-10 11 -15 -3 -5 1 -11 9 -15 9 -3 15 0 15 8 0 9 7 12 19 9 14 -4 19 2 23 26
4 29 -6 51 -24 51 -4 0 -8 -5 -8 -10z"/>
<path d="M1893 1336 c-11 -6 -18 -17 -16 -23 3 -7 0 -13 -6 -13 -6 0 -11 -4
-11 -10 0 -5 7 -10 16 -10 26 0 45 -25 31 -41 -7 -7 -3 -6 8 2 11 9 28 19 38
22 10 4 17 17 17 31 0 32 -48 58 -77 42z"/>
<path d="M768 1300 c-7 -23 3 -50 18 -50 8 0 14 -4 14 -10 0 -15 30 -12 30 3
0 7 4 5 10 -4 17 -29 109 -40 138 -17 17 15 15 31 -9 57 -25 27 -32 22 -38
-30 -1 -4 -9 -10 -18 -13 -10 -4 -14 -4 -10 0 4 4 -5 15 -19 25 -19 12 -34 15
-61 9 -23 -6 -35 -5 -38 3 -2 7 -5 19 -8 27 -3 13 -4 13 -9 0z"/>
<path d="M1000 1300 c-13 -9 -12 -13 9 -30 12 -11 28 -17 33 -14 7 4 6 9 -1
14 -7 3 -9 14 -5 23 7 19 -12 23 -36 7z"/>
<path d="M1990 1295 c0 -8 6 -15 13 -15 8 0 7 -4 -3 -10 -13 -8 -13 -10 1 -10
9 0 22 7 30 16 10 13 10 17 -2 25 -21 13 -39 11 -39 -6z"/>
<path d="M996 1222 c-15 -18 -14 -19 21 -20 20 -1 43 4 52 11 12 10 14 9 9 -5
-5 -11 -2 -15 10 -14 9 2 18 9 20 16 3 7 0 10 -6 7 -5 -4 -15 0 -22 8 -17 21
-63 19 -84 -3z"/>
<path d="M1209 1208 c-11 -27 -19 -33 -42 -31 -22 1 -28 -2 -25 -15 5 -28 54
-27 83 2 28 28 33 51 10 42 -18 -7 -20 5 -3 22 7 7 8 12 2 12 -6 0 -17 -15
-25 -32z"/>
<path d="M1794 1211 c2 -39 33 -73 65 -69 25 3 45 38 22 38 -6 0 -11 -8 -11
-17 0 -14 -2 -15 -9 -4 -5 7 -14 10 -20 7 -6 -4 -11 0 -11 9 0 10 5 13 12 9 7
-5 8 -3 4 5 -5 7 -10 10 -13 7 -9 -8 -31 18 -26 31 3 7 1 13 -5 13 -5 0 -9
-13 -8 -29z"/>
<path d="M1950 1223 c-9 -7 -21 -9 -25 -5 -4 4 -6 1 -3 -7 7 -22 28 -25 28 -4
1 16 2 16 13 3 12 -15 77 -16 77 -2 -1 32 -54 40 -90 15z"/>
<path d="M809 1196 c-24 -12 -39 -66 -18 -66 6 0 9 -7 5 -15 -3 -10 5 -20 25
-31 25 -13 33 -13 47 -2 13 11 14 11 8 0 -6 -10 -3 -13 10 -10 14 2 19 12 19
40 1 20 7 43 14 52 9 11 10 16 2 16 -6 0 -17 -11 -23 -25 -11 -25 -54 -37 -45
-12 2 6 11 11 20 11 8 -1 17 6 20 16 6 24 -52 42 -84 26z"/>
<path d="M2168 1198 c-16 -5 -28 -14 -28 -19 0 -4 -7 -6 -16 -2 -12 4 -15 2
-12 -8 2 -7 17 -15 32 -16 33 -2 40 -8 31 -22 -4 -8 -12 -8 -25 -1 -14 8 -19
5 -23 -12 -3 -11 0 -27 8 -34 15 -15 65 -19 65 -5 0 5 9 11 20 14 13 3 18 10
14 21 -3 9 -1 16 5 16 6 0 10 14 8 33 -2 24 -7 31 -20 29 -9 -2 -17 2 -17 8 0
12 -6 12 -42 -2z"/>
<path d="M2300 1210 c-10 -33 -8 -55 5 -62 21 -13 19 -35 -5 -41 -20 -5 -29
-27 -11 -27 5 0 14 -15 20 -33 10 -30 14 -33 46 -29 21 3 35 0 35 -7 0 -9 -20
-15 -42 -13 -3 1 -12 -5 -18 -13 -7 -8 -9 -15 -4 -15 5 0 10 -12 11 -27 0 -16
12 -37 28 -50 27 -24 65 -31 65 -12 0 5 4 8 9 4 10 -6 54 35 46 43 -2 2 -18
-1 -35 -7 -57 -19 -91 19 -54 60 14 16 18 16 43 1 15 -8 35 -13 44 -9 23 9 34
57 16 68 -21 13 -55 11 -68 -5 -10 -12 -17 -12 -35 -2 -42 21 -58 44 -53 75
10 58 36 68 69 26 22 -28 44 -32 74 -11 21 15 47 16 60 3 4 -4 14 -7 22 -7 28
0 79 -32 91 -56 14 -32 32 -22 22 13 -6 22 -19 30 -87 53 -44 14 -86 30 -93
34 -8 5 -20 0 -33 -13 -15 -17 -23 -19 -33 -11 -8 6 -11 18 -8 27 3 8 0 19 -8
24 -21 13 -69 11 -69 -3 0 -10 -3 -9 -9 1 -5 7 -13 11 -19 7 -6 -3 -13 0 -15
6 -3 7 -6 11 -7 8z m183 -186 c9 -10 -4 -34 -19 -34 -8 0 -14 9 -14 20 0 19
19 27 33 14z"/>
<path d="M611 1191 c-8 -5 -11 -16 -8 -24 3 -9 -1 -21 -10 -28 -12 -11 -18 -9
-31 9 l-17 21 -85 -30 c-47 -16 -89 -35 -95 -42 -5 -7 -18 -11 -27 -9 -21 4
-24 -13 -4 -25 7 -4 16 -15 19 -23 3 -10 9 -5 17 17 20 54 148 99 183 64 17
-17 31 -13 63 14 16 14 31 25 34 25 12 0 26 -17 38 -43 13 -31 2 -67 -22 -67
-8 0 -19 -7 -26 -15 -11 -13 -16 -13 -44 4 -32 20 -41 19 -65 -12 -12 -15 -11
-20 4 -37 22 -24 42 -25 66 -4 16 14 19 14 38 -5 27 -27 26 -37 -2 -56 -19
-12 -30 -13 -55 -4 -39 13 -57 8 -65 -20 -8 -31 24 -67 48 -54 17 10 16 12 -8
33 -15 13 -24 27 -21 32 4 5 17 0 29 -12 14 -13 29 -19 36 -15 8 5 10 4 5 -3
-5 -8 0 -12 13 -12 21 0 78 47 74 61 -2 5 2 20 7 33 9 23 7 26 -25 32 -44 8
-46 27 -2 20 29 -5 34 -2 54 36 23 42 23 58 -3 58 -20 0 -17 23 5 37 13 8 18
19 14 33 -6 22 -38 27 -47 8 -5 -10 -7 -10 -12 0 -7 14 -52 16 -73 3z m-26
-181 c0 -22 -29 -18 -33 3 -3 14 1 18 15 15 10 -2 18 -10 18 -18z"/>
<path d="M1265 1190 c3 -5 -6 -21 -21 -35 l-28 -26 26 -26 c26 -25 28 -26 52
-9 28 18 36 42 11 32 -8 -3 -15 -1 -15 4 0 9 23 15 44 11 5 -1 4 5 -3 13 -7 8
-18 13 -25 10 -8 -3 -16 4 -19 15 -3 12 -10 21 -17 21 -6 0 -8 -4 -5 -10z"/>
<path d="M1746 1174 c-3 -8 -9 -13 -14 -10 -4 2 -14 1 -21 -4 -10 -6 -8 -9 8
-15 11 -3 21 -11 21 -16 0 -6 -10 -7 -22 -3 l-23 6 24 -26 c22 -23 49 -37 38
-18 -3 4 8 7 24 7 36 1 38 -12 3 -25 -31 -12 -29 -44 3 -48 14 -2 27 5 38 22
18 28 16 72 -3 69 -6 -2 -12 4 -12 12 0 8 -9 19 -20 25 -11 6 -20 17 -20 25 0
20 -16 19 -24 -1z"/>
<path d="M2010 1168 c-20 -7 -22 -11 -10 -18 8 -5 12 -10 8 -11 -5 -1 -11 -2
-15 -3 -5 -1 -17 -7 -28 -13 -14 -9 -16 -13 -5 -13 12 0 11 -3 -2 -11 -23 -13
-25 -69 -3 -69 8 0 15 -6 15 -14 0 -8 2 -23 5 -33 3 -11 1 -9 -6 5 -15 27 -25
28 -32 2 -8 -30 24 -84 52 -88 18 -3 22 0 18 12 -4 9 -2 16 3 16 6 0 10 -4 10
-10 0 -5 5 -10 10 -10 6 0 10 14 10 30 0 34 -23 41 -39 13 -5 -10 -12 -15 -16
-12 -3 4 1 13 9 22 13 13 14 17 1 27 -16 14 -13 56 4 53 6 -2 11 2 11 7 0 6
-9 10 -19 10 -11 0 -23 4 -26 10 -3 6 1 7 10 4 12 -5 16 -2 13 12 -2 13 2 18
15 16 10 -2 17 3 17 14 0 10 3 14 7 11 3 -4 12 -2 18 3 9 8 11 4 8 -14 -5 -25
8 -29 34 -13 9 6 11 3 7 -10 -4 -13 -3 -14 4 -5 15 22 2 59 -26 73 -37 18 -34
18 -62 7z"/>
<path d="M2734 1168 c-3 -5 -1 -15 5 -22 6 -7 7 -17 3 -21 -4 -5 4 -2 17 6 14
9 26 20 28 26 5 13 -45 24 -53 11z"/>
<path d="M963 1157 c3 -8 -2 -13 -14 -13 -10 1 -18 -2 -19 -6 -2 -41 1 -45 30
-44 34 1 38 10 13 26 -13 8 -14 10 -3 8 8 -2 25 7 38 20 l22 22 -36 0 c-26 0
-35 -4 -31 -13z"/>
<path d="M1904 1143 c3 -16 -2 -23 -18 -25 -13 -2 -22 -11 -24 -27 -3 -21 -1
-23 22 -17 35 9 33 -3 -3 -15 -15 -6 -33 -21 -39 -34 -7 -14 -20 -25 -31 -25
-10 0 -22 -7 -25 -16 -9 -23 -7 -36 4 -29 6 3 10 1 10 -4 0 -18 29 -12 50 9
12 12 24 19 28 16 27 -16 49 77 29 118 -6 13 -6 16 2 12 13 -9 13 11 0 39 -9
19 -9 19 -5 -2z"/>
<path d="M206 1142 c-7 -11 4 -52 14 -52 21 0 27 26 10 43 -10 10 -20 14 -24
9z"/>
<path d="M1010 1126 c0 -16 7 -26 21 -29 12 -3 18 -10 15 -16 -3 -5 2 -12 11
-14 15 -4 15 -5 -2 -6 -11 0 -26 -11 -34 -23 -10 -18 -11 -20 0 -10 15 14 29
16 29 4 0 -5 -11 -14 -24 -20 -18 -8 -30 -7 -50 3 -14 8 -26 13 -27 12 0 -1
-2 -10 -4 -20 -3 -15 -1 -16 11 -6 11 9 14 8 14 -7 0 -16 2 -17 10 -4 6 9 10
10 10 3 0 -7 11 -10 28 -7 l27 4 -31 -18 c-26 -14 -30 -21 -24 -38 24 -63 111
-15 108 59 -1 14 -7 17 -26 12 -15 -4 -21 -2 -17 5 3 5 13 10 21 10 12 0 15
10 12 48 -2 29 -8 47 -16 47 -7 0 -16 5 -20 11 -4 6 -15 13 -24 17 -14 5 -18
1 -18 -17z"/>
<path d="M1116 1142 c-8 -14 -1 -40 19 -62 24 -26 35 -25 35 3 0 16 -9 28 -26
35 -14 7 -22 17 -19 22 3 6 4 10 1 10 -3 0 -7 -4 -10 -8z"/>
<path d="M1369 1144 c-1 -5 0 -18 1 -29 1 -11 -2 -17 -6 -12 -12 11 -64 -44
-64 -68 0 -44 41 -58 80 -27 23 19 44 112 22 98 -7 -4 -10 -2 -6 7 3 8 -2 20
-11 27 -8 7 -16 9 -16 4z m-9 -100 c0 -31 -23 -28 -28 4 -2 15 2 22 12 22 11
0 16 -9 16 -26z"/>
<path d="M1640 1140 c-10 -6 -11 -10 -2 -10 6 0 12 -4 12 -10 0 -5 -6 -9 -12
-7 -8 1 -13 -11 -14 -33 -2 -41 13 -73 28 -64 7 4 8 3 4 -4 -10 -17 41 -27 59
-12 8 7 15 19 15 27 0 22 -39 73 -56 73 -8 0 -14 5 -14 11 0 5 5 7 11 3 8 -4
8 0 0 15 -13 24 -12 24 -31 11z m58 -99 c3 -15 -1 -22 -9 -19 -7 2 -14 14 -16
27 -2 15 1 21 9 19 7 -3 15 -15 16 -27z"/>
<path d="M2796 1131 c-10 -11 -23 -18 -27 -15 -5 3 -9 -4 -9 -15 0 -12 5 -21
10 -21 6 0 10 7 10 15 0 8 3 15 6 15 11 0 33 -28 27 -34 -13 -13 13 -5 32 10
20 16 20 16 -2 9 -22 -6 -34 10 -13 17 7 2 6 10 -3 21 -12 18 -13 17 -31 -2z"/>
<path d="M1430 1095 c0 -32 26 -95 39 -95 21 0 21 20 1 28 l-21 8 22 27 c21
28 19 51 -3 29 -7 -7 -17 -12 -22 -12 -6 0 -3 5 7 11 19 11 14 29 -9 29 -8 0
-14 -10 -14 -25z"/>
<path d="M257 1096 c-3 -8 -3 -17 1 -21 4 -4 7 -11 7 -16 0 -13 19 -13 23 0 2
6 -2 11 -8 11 -7 0 -9 8 -5 20 7 22 -10 28 -18 6z"/>
<path d="M1196 1095 c-14 -36 34 -89 64 -70 17 10 11 33 -10 40 -11 3 -20 15
-20 26 0 22 -25 26 -34 4z"/>
<path d="M179 1093 c0 -5 -2 -15 -4 -24 -2 -12 3 -15 16 -12 11 3 19 0 19 -6
0 -7 -5 -9 -11 -5 -7 4 -10 1 -7 -6 6 -20 28 -24 28 -6 0 34 -38 88 -41 59z"/>
<path d="M1551 1074 c17 -19 20 -27 11 -36 -14 -14 -16 -38 -2 -38 10 0 40 51
40 68 0 5 -16 14 -36 20 l-36 11 23 -25z"/>
<path d="M1117 1059 c3 -11 10 -19 17 -19 6 0 6 -4 -3 -9 -17 -11 -5 -51 15
-51 8 0 24 -9 36 -20 29 -27 40 -25 60 10 l17 30 -27 1 c-15 1 -31 1 -35 0 -5
-1 -6 2 -4 6 8 12 -14 36 -50 54 -29 16 -30 16 -26 -2z"/>
<path d="M760 1055 c-13 -16 -6 -35 15 -35 15 0 24 19 17 38 -6 16 -17 15 -32
-3z"/>
<path d="M2240 1055 c0 -10 -5 -13 -12 -9 -8 5 -9 1 -4 -12 6 -15 5 -17 -5 -6
-7 6 -21 12 -31 12 -17 0 -17 -1 0 -18 13 -15 21 -17 37 -8 11 5 27 10 35 11
21 0 19 39 -2 43 -11 2 -18 -3 -18 -13z"/>
<path d="M293 1029 c-11 -27 -10 -30 5 -24 9 4 23 8 30 8 17 1 15 11 -6 30
-17 15 -19 14 -29 -14z"/>
<path d="M2704 1046 c-21 -16 -12 -32 21 -38 15 -2 19 2 17 17 -5 31 -16 36
-38 21z"/>
<path d="M809 1048 c-6 -21 -5 -39 2 -44 5 -3 9 1 9 8 0 8 9 14 20 15 11 1 18
-2 15 -8 -4 -5 0 -9 8 -9 8 0 17 6 20 13 4 10 -3 13 -24 12 -16 -1 -29 2 -29
7 0 7 -19 12 -21 6z"/>
<path d="M2810 1034 c0 -17 -12 -18 -28 -2 -9 9 -13 7 -18 -5 -12 -32 1 -36
43 -15 42 21 46 30 18 34 -8 1 -15 -4 -15 -12z"/>
<path d="M243 1033 c-7 -3 -13 -13 -13 -23 0 -13 5 -17 20 -13 11 3 20 11 20
19 0 16 -11 23 -27 17z"/>
<path d="M734 1015 c-9 -22 5 -35 37 -35 38 0 37 14 -2 34 -25 13 -31 13 -35
1z"/>
<path d="M2000 1011 c0 -23 30 -37 41 -19 9 15 1 31 -12 22 -5 -3 -6 -10 -3
-16 4 -7 2 -8 -4 -4 -6 4 -9 13 -5 21 3 8 0 15 -6 15 -6 0 -11 -9 -11 -19z"/>
<path d="M1416 1011 c-4 -6 -4 -11 1 -11 11 0 -48 -31 -67 -35 -8 -2 -20 -4
-26 -4 -15 -1 -24 -35 -14 -51 12 -20 45 -7 48 19 3 17 6 20 12 12 10 -17 45
1 60 29 12 22 -2 62 -14 41z"/>
<path d="M1596 1005 c-15 -40 43 -91 65 -57 8 14 9 12 5 -9 -4 -19 -1 -29 10
-33 34 -13 44 -7 44 30 0 22 -4 33 -11 29 -17 -11 -54 3 -81 30 -21 21 -27 23
-32 10z"/>
<path d="M2248 1004 c-16 -8 -28 -17 -28 -20 0 -3 4 -3 9 1 5 3 12 1 15 -3 10
-17 56 -1 56 19 0 23 -15 24 -52 3z"/>
<path d="M1747 984 c-11 -11 -8 -52 4 -60 6 -3 14 -2 19 2 10 11 -12 69 -23
58z"/>
<path d="M1262 967 c-7 -8 -7 -17 2 -30 19 -25 26 -21 26 13 0 32 -11 38 -28
17z"/>
<path d="M800 951 c-8 -6 -18 -7 -23 -4 -18 11 -57 -8 -57 -28 0 -26 30 -37
42 -16 5 10 20 17 33 17 18 0 25 5 25 20 0 23 0 23 -20 11z"/>
<path d="M1859 937 c-13 -12 -26 -21 -29 -19 -3 1 -5 -2 -4 -8 1 -5 2 -19 3
-30 2 -33 25 -22 48 25 26 50 17 65 -18 32z"/>
<path d="M2215 913 c3 -27 9 -51 13 -55 12 -11 62 -17 62 -7 0 8 -13 12 -30
11 -3 0 -6 7 -6 16 -1 9 -4 26 -8 37 -7 18 -6 18 12 -2 34 -39 74 -25 52 18
-9 16 -19 20 -41 17 -17 -3 -32 -1 -35 4 -3 4 -10 8 -15 8 -7 0 -8 -18 -4 -47z"/>
<path d="M1102 924 c-8 -18 -26 -35 -50 -45 l-37 -15 25 -14 c24 -13 24 -12
10 5 -13 17 -13 18 1 13 9 -4 37 -10 63 -13 47 -7 59 2 32 24 -11 9 -15 8 -20
-5 -4 -9 -9 -14 -13 -11 -3 4 0 13 7 21 8 11 9 24 3 42 l-9 27 -12 -29z"/>
<path d="M1140 936 c0 -7 7 -19 15 -26 8 -7 15 -20 15 -30 0 -22 9 -30 25 -24
10 4 11 14 4 37 -12 44 -59 78 -59 43z"/>
<path d="M1529 948 c-6 -20 -6 -38 1 -38 4 0 6 -11 5 -25 -2 -13 0 -24 3 -24
4 1 15 1 26 0 16 -1 17 -3 5 -18 -13 -15 -12 -15 8 -5 33 18 36 29 11 48 -20
14 -21 16 -3 10 14 -4 9 3 -14 24 -32 28 -40 34 -42 28z"/>
<path d="M1905 920 c-11 -50 32 -78 75 -50 13 9 13 10 0 11 -8 1 -19 1 -23 0
-4 -1 -15 15 -23 34 -8 19 -16 35 -18 35 -3 0 -7 -14 -11 -30z"/>
<path d="M1453 914 c-16 -14 -21 -23 -13 -19 8 4 6 -1 -4 -9 -11 -9 -16 -16
-11 -16 5 0 -4 -13 -19 -29 -30 -31 -31 -57 -3 -95 13 -18 14 -17 10 11 -5 34
23 104 41 102 38 -5 48 2 44 26 -3 13 -1 22 3 19 5 -3 9 1 9 9 0 27 -29 27
-57 1z"/>
<path d="M2140 900 c0 -27 -6 -51 -17 -62 -15 -17 -15 -20 -3 -28 25 -16 40
-11 52 16 9 20 9 27 0 33 -7 4 -14 22 -17 40 -6 50 -15 50 -15 1z"/>
<path d="M935 880 c5 -44 20 -64 40 -52 5 4 13 7 17 7 12 0 22 15 10 15 -7 0
-12 6 -12 13 0 8 -9 22 -20 32 -11 10 -20 14 -20 9 0 -5 -5 -2 -10 6 -7 11 -9
2 -5 -30z"/>
<path d="M1625 893 c10 -15 25 -35 34 -44 16 -15 18 -14 27 6 10 20 7 25 -34
44 l-45 22 18 -28z"/>
<path d="M2080 910 c0 -6 -4 -8 -10 -5 -5 3 -10 1 -10 -5 0 -6 -7 -18 -15 -26
-19 -19 -19 -40 -1 -47 11 -4 13 -1 9 11 -5 14 -3 15 8 5 20 -20 29 -16 30 15
0 15 3 21 6 15 9 -23 20 -14 19 14 -1 18 -7 29 -18 31 -10 2 -18 -2 -18 -8z"/>
<path d="M2500 911 c0 -6 -12 -21 -26 -34 -19 -18 -23 -27 -14 -32 8 -5 18 -2
24 7 12 16 48 10 47 -7 0 -6 11 -17 25 -25 31 -19 58 -4 62 33 5 37 -39 59
-66 34 -24 -22 -32 -21 -32 2 0 11 -4 23 -10 26 -5 3 -10 2 -10 -4z m97 -47
c7 -18 -17 -38 -31 -24 -11 11 -1 40 14 40 6 0 13 -7 17 -16z"/>
<path d="M774 895 c-6 -16 19 -48 30 -38 3 4 6 17 6 30 0 26 -27 32 -36 8z"/>
<path d="M1373 898 c-33 -11 -39 -22 -27 -52 8 -20 24 -21 24 -1 0 8 4 15 9
15 5 0 16 11 25 25 18 27 16 28 -31 13z"/>
<path d="M1790 901 c0 -6 -8 -7 -17 -4 -16 6 -16 5 -4 -10 14 -18 37 -24 26
-8 -3 5 -1 12 4 15 5 4 12 -4 14 -16 5 -22 5 -21 4 1 -2 23 -27 44 -27 22z"/>
<path d="M418 875 c-9 -21 -8 -28 7 -45 10 -11 24 -20 30 -20 19 0 63 39 46
40 -8 0 -11 3 -8 7 11 10 -24 43 -45 43 -10 0 -24 -11 -30 -25z m49 -29 c-4
-9 -13 -13 -22 -10 -18 7 -20 31 -2 37 17 6 31 -9 24 -27z"/>
<path d="M1258 882 c-10 -2 -18 -10 -18 -18 0 -8 -4 -14 -8 -14 -14 0 -10 -29
5 -34 8 -3 11 -10 8 -16 -8 -13 26 -13 59 0 57 21 15 96 -46 82z m41 -53 c-5
-10 -12 -19 -15 -19 -3 0 -2 5 1 10 3 6 -3 10 -14 10 -25 0 -28 17 -3 22 30 7
43 -2 31 -23z"/>
<path d="M673 863 c-26 -13 -33 -23 -33 -45 0 -39 29 -37 58 5 22 33 29 58 15
56 -5 0 -23 -8 -40 -16z"/>
<path d="M1712 868 c-18 -18 -14 -56 7 -68 17 -8 48 -8 71 0 3 2 8 2 11 2 4
-1 7 10 7 23 0 14 -6 25 -13 25 -7 0 -15 7 -19 15 -7 18 -47 20 -64 3z m47
-34 c-14 -17 -35 -8 -35 15 0 16 4 17 23 8 17 -8 20 -13 12 -23z"/>
<path d="M2325 853 c0 -14 8 -30 17 -37 10 -7 15 -16 11 -19 -3 -4 3 -7 15 -7
17 0 22 6 22 28 0 22 -7 32 -33 44 -33 16 -33 15 -32 -9z"/>
<path d="M856 854 c-8 -22 11 -54 34 -54 27 0 34 18 19 46 -14 27 -44 32 -53
8z"/>
<path d="M1470 835 c-7 -8 -18 -15 -25 -15 -17 0 -24 -64 -9 -84 6 -9 14 -13
17 -9 10 10 8 25 -2 18 -5 -3 -12 -1 -15 4 -3 5 8 14 25 22 29 12 30 13 13 26
-9 7 -15 16 -11 19 4 4 12 2 20 -4 10 -8 13 -5 15 14 2 27 -10 31 -28 9z"/>
<path d="M1604 833 c13 -34 17 -81 6 -88 -5 -3 -10 -11 -10 -17 0 -18 27 10
40 42 10 25 10 34 -4 55 -18 28 -42 34 -32 8z"/>
<path d="M535 820 c7 -8 15 -24 16 -34 8 -40 76 -36 73 4 -4 48 -3 47 -53 46
-43 -1 -48 -3 -36 -16z"/>
<path d="M722 815 c-15 -15 -19 -26 -12 -30 6 -4 12 -5 13 -4 1 2 10 14 20 26
25 29 7 37 -21 8z"/>
<path d="M1158 833 c-10 -2 -18 -9 -18 -14 0 -6 -5 -7 -12 -3 -7 4 -8 3 -4 -5
4 -6 11 -9 16 -6 5 3 11 1 15 -5 7 -12 16 -12 33 -2 12 8 7 43 -7 41 -3 -1
-14 -3 -23 -6z"/>
<path d="M1839 824 c-17 -21 5 -43 28 -28 9 6 18 15 20 21 6 17 -35 22 -48 7z"/>
<path d="M2410 804 c0 -40 11 -48 58 -39 35 6 36 7 17 21 -17 13 -18 16 -5 24
8 5 18 10 23 10 4 0 7 3 7 8 0 4 -23 7 -50 8 l-50 1 0 -33z"/>
<path d="M777 804 c-27 -29 -28 -70 -3 -106 14 -20 15 -18 18 22 4 50 24 64
34 23 4 -15 15 -36 25 -45 17 -17 20 -16 52 17 40 41 127 70 151 51 23 -19 26
-66 5 -87 -11 -11 -20 -32 -20 -49 -2 -39 -2 -40 -25 -77 -21 -35 -57 -58 -98
-62 -18 -1 -36 -53 -29 -82 4 -15 3 -20 -5 -15 -7 4 -12 3 -12 -2 0 -5 13 -9
28 -9 20 1 29 7 29 20 1 11 -3 17 -10 14 -11 -4 -14 15 -8 54 1 3 16 5 34 5
20 0 42 8 54 20 29 29 66 105 67 139 1 23 6 30 20 30 12 0 23 10 29 28 7 23 6
31 -9 42 -17 12 -17 16 -5 36 12 20 11 24 -5 36 -22 16 -34 17 -34 2 0 -6 -8
-3 -17 7 -17 16 -18 16 -21 1 -2 -11 -14 -17 -30 -18 -73 -2 -112 -25 -112
-66 0 -12 -4 -23 -10 -23 -5 0 -10 16 -10 35 0 33 -32 85 -51 85 -5 0 -19 -12
-32 -26z"/>
<path d="M1584 823 c4 -8 1 -13 -7 -13 -22 0 -41 -26 -26 -36 8 -5 10 -3 4 7
-4 8 2 4 14 -8 12 -13 24 -23 27 -23 8 0 -2 69 -11 77 -4 5 -5 2 -1 -4z"/>
<path d="M1998 825 c-3 -3 -18 -8 -34 -11 -15 -3 -31 -7 -36 -10 -11 -7 -10
-34 2 -34 16 0 11 -28 -6 -38 -13 -7 -15 -15 -7 -38 6 -16 16 -28 23 -26 17 4
31 -19 24 -39 -5 -16 25 -76 54 -111 8 -10 11 -18 6 -18 -5 0 2 -7 15 -16 14
-10 33 -14 51 -11 25 5 28 3 32 -23 2 -16 1 -27 -4 -24 -4 3 -8 -2 -8 -10 0
-9 -4 -16 -10 -16 -5 0 -10 -4 -10 -10 0 -16 26 -12 41 6 21 26 2 113 -21 99
-5 -3 -17 -1 -27 4 -10 5 -26 12 -35 15 -27 8 -58 67 -56 103 1 22 -5 40 -21
57 -21 22 -22 28 -11 60 10 33 20 41 43 37 4 -1 24 -4 45 -7 24 -4 50 -18 74
-41 43 -42 62 -39 84 13 11 27 18 33 28 25 7 -6 11 -24 8 -43 -4 -31 -3 -32
13 -16 10 9 20 30 21 47 3 23 -3 35 -28 56 l-31 26 -24 -23 c-20 -19 -23 -28
-18 -60 6 -31 4 -38 -9 -38 -10 0 -16 9 -16 25 0 30 -40 59 -88 62 -18 1 -39
9 -46 18 -6 9 -14 13 -18 10z"/>
<path d="M2280 823 c1 -18 30 -44 40 -38 8 5 6 13 -6 26 -17 19 -34 25 -34 12z"/>
<path d="M287 808 c-33 -18 -15 -78 23 -78 23 0 52 34 45 52 -9 23 -48 38 -68
26z m40 -24 c8 -21 -13 -42 -28 -27 -13 13 -5 43 11 43 6 0 13 -7 17 -16z"/>
<path d="M2696 804 c-31 -30 -13 -74 29 -74 13 0 27 10 35 25 12 22 11 27 -5
45 -22 24 -38 25 -59 4z m41 -38 c-4 -9 -11 -16 -17 -16 -17 0 -24 31 -9 41
18 11 34 -5 26 -25z"/>
<path d="M1324 774 c-33 -14 -69 -58 -59 -74 10 -16 34 -11 47 10 17 26 38 26
38 -1 0 -11 -4 -17 -10 -14 -5 3 -18 1 -29 -4 -24 -13 -17 -51 10 -51 11 0 19
-4 19 -10 0 -5 -5 -10 -12 -10 -6 0 -9 -3 -6 -6 11 -10 48 16 48 34 0 15 -2
15 -11 2 -8 -12 -9 -11 -7 5 2 12 10 19 20 17 25 -4 42 33 23 52 -8 8 -15 21
-15 29 0 26 -23 35 -56 21z"/>
<path d="M1656 773 c-3 -10 -7 -22 -8 -28 -1 -5 -7 -16 -14 -23 -10 -10 -11
-18 -2 -37 12 -26 24 -32 30 -15 2 5 8 -2 15 -15 6 -14 7 -23 2 -19 -5 3 -9 1
-9 -5 0 -5 5 -13 11 -16 14 -9 38 25 32 45 -4 12 -3 12 5 1 7 -10 11 -11 17
-1 5 8 1 18 -8 25 -21 15 -21 22 -2 22 8 0 12 -4 9 -9 -3 -4 2 -8 10 -8 22 0
27 15 12 36 -8 10 -12 23 -9 29 2 7 -2 12 -9 13 -20 1 -57 10 -67 17 -5 3 -12
-3 -15 -12z"/>
<path d="M676 761 c-10 -15 12 -61 29 -61 17 0 39 46 29 61 -3 5 -16 9 -29 9
-13 0 -26 -4 -29 -9z"/>
<path d="M1770 755 c0 -8 6 -12 13 -9 9 3 13 -6 13 -30 0 -19 -4 -32 -8 -30
-4 3 -13 2 -20 -2 -7 -5 -5 -12 8 -22 14 -11 15 -13 3 -9 -22 7 -55 -31 -70
-83 -12 -40 -53 -81 -75 -73 -17 6 -45 -32 -46 -63 -2 -69 16 -94 67 -94 l30
1 -27 20 c-21 15 -28 29 -28 54 0 27 7 37 41 59 24 16 47 42 55 63 27 63 95
144 118 141 21 -3 24 -16 12 -55 -9 -29 24 -63 62 -63 16 0 37 -9 47 -20 10
-11 14 -20 9 -20 -5 0 -3 -4 5 -9 13 -8 12 -15 -4 -50 -10 -23 -15 -44 -12
-48 4 -3 8 -4 10 -2 2 2 13 17 25 32 l21 29 -37 73 c-34 68 -59 91 -56 51 1
-10 -6 -16 -18 -16 -12 0 -17 4 -12 12 4 6 3 8 -4 4 -6 -3 -13 -2 -16 3 -8 12
3 41 16 41 5 0 6 -6 2 -12 -4 -7 1 -6 11 4 17 15 16 18 -6 57 -15 28 -26 38
-33 31 -15 -15 -23 -12 -29 10 -3 11 -12 20 -21 20 -9 0 -16 5 -16 10 0 6 -7
10 -15 10 -8 0 -15 -7 -15 -15z"/>
<path d="M2300 741 c0 -21 6 -32 20 -36 24 -8 25 -18 6 -35 -8 -6 -12 -18 -9
-25 8 -23 34 9 33 42 -1 15 2 40 6 56 6 25 4 27 -25 27 -28 0 -31 -3 -31 -29z"/>
<path d="M516 735 c-4 -14 -3 -31 1 -38 4 -7 0 -7 -10 2 -15 12 -17 11 -17 -8
0 -28 4 -27 51 11 37 30 39 33 23 45 -27 20 -41 16 -48 -12z"/>
<path d="M1194 735 c-15 -14 -33 -24 -40 -21 -7 3 -19 -12 -28 -35 -20 -49
-20 -47 2 -45 12 1 17 -6 17 -24 0 -20 -6 -26 -27 -28 -16 -2 -28 1 -28 6 0 5
11 7 25 4 15 -2 25 0 25 7 0 7 -5 9 -10 6 -6 -4 -18 -1 -26 6 -17 14 -12 20
-57 -67 l-36 -71 24 -25 c13 -14 21 -30 17 -34 -4 -5 -1 -4 5 1 9 8 9 21 1 52
-14 55 8 96 47 89 14 -3 25 0 25 5 0 5 6 9 14 9 20 0 28 32 21 74 -6 29 -4 35
15 41 16 5 26 1 36 -14 12 -17 19 -19 35 -11 25 14 14 33 -14 24 -19 -6 -20
-5 -8 9 8 10 10 24 6 34 -5 10 -7 21 -7 26 3 13 -6 8 -34 -18z"/>
<path d="M2478 753 c-10 -2 -18 -11 -18 -19 0 -22 41 -37 70 -26 l25 9 -23 7
c-12 4 -22 14 -22 22 0 14 -2 15 -32 7z"/>
<path d="M613 735 c-8 -9 -10 -26 -6 -46 6 -29 7 -30 19 -14 11 15 16 16 29 5
13 -10 15 -9 15 6 -1 58 -29 82 -57 49z"/>
<path d="M2367 717 c-5 -38 1 -53 16 -38 13 13 30 15 22 2 -3 -5 -1 -12 4 -16
10 -6 27 62 18 71 -2 3 -16 7 -30 9 -22 4 -25 1 -30 -28z"/>
<path d="M552 682 c-38 -37 -55 -69 -42 -77 6 -3 10 4 10 16 0 17 3 20 11 12
12 -12 51 19 62 49 11 30 -11 30 -41 0z"/>
<path d="M2440 683 c0 -26 4 -33 20 -33 12 0 20 -7 20 -16 0 -14 3 -14 15 -4
15 13 17 32 2 31 -4 -1 -19 11 -32 26 l-24 28 -1 -32z"/>
<path d="M730 668 c0 -30 0 -31 20 -13 15 14 17 21 9 32 -19 22 -29 15 -29
-19z"/>
<path d="M1417 685 c-4 -8 -2 -15 3 -15 6 0 10 -5 10 -11 0 -6 -8 -8 -19 -4
-12 3 -21 0 -25 -11 -8 -21 1 -34 25 -34 13 0 19 7 20 23 0 21 1 21 9 2 6 -15
8 -9 5 20 -3 41 -18 57 -28 30z"/>
<path d="M2266 685 c-17 -13 -18 -15 -3 -15 9 0 17 -7 17 -15 0 -8 5 -15 10
-15 6 0 10 14 10 30 0 33 -6 36 -34 15z"/>
<path d="M680 677 c0 -7 9 -20 20 -30 19 -16 20 -16 20 1 0 9 -9 23 -20 30
-16 10 -20 10 -20 -1z"/>
<path d="M942 678 c-18 -18 -15 -43 8 -63 18 -17 21 -17 45 -1 30 20 32 37 7
59 -22 20 -43 22 -60 5z m45 -24 c8 -20 -8 -36 -26 -25 -15 10 -8 41 9 41 6 0
13 -7 17 -16z"/>
<path d="M2025 670 c-17 -18 -17 -21 -1 -45 9 -14 25 -25 36 -25 11 0 27 11
36 25 16 24 16 27 -1 45 -10 11 -26 20 -35 20 -9 0 -25 -9 -35 -20z m52 -16
c8 -20 -8 -36 -26 -25 -15 10 -8 41 9 41 6 0 13 -7 17 -16z"/>
<path d="M1251 651 c-11 -7 -9 -16 11 -42 14 -19 31 -49 38 -66 7 -18 26 -43
42 -55 78 -59 82 -79 25 -129 l-31 -27 43 8 c47 8 51 11 56 37 2 10 4 18 5 18
1 0 4 12 6 27 3 15 -2 32 -11 41 -8 9 -15 19 -15 24 0 5 -12 10 -26 11 -23 2
-80 32 -60 32 5 0 3 7 -4 15 -7 8 -9 15 -6 15 9 0 -23 57 -44 82 -10 11 -20
14 -29 9z"/>
<path d="M1615 650 c-4 -6 -14 -9 -22 -8 -9 2 -18 -3 -21 -11 -3 -8 0 -11 7
-7 6 4 11 2 11 -4 0 -12 59 -10 67 4 3 5 1 6 -5 2 -7 -4 -12 -1 -12 8 0 19
-17 30 -25 16z"/>
<path d="M1500 619 c0 -24 23 -21 28 4 2 10 -3 17 -12 17 -10 0 -16 -9 -16
-21z"/>
<path d="M1470 567 c-7 -17 -17 -40 -21 -49 -5 -11 -1 -24 12 -39 21 -24 21
-24 37 6 10 21 6 95 -6 107 -4 4 -14 -7 -22 -25z"/>
<path d="M1532 572 c-9 -26 -8 -31 6 -35 15 -4 15 -5 -1 -6 -14 -1 -16 -7 -11
-28 9 -39 13 -43 30 -36 32 12 36 41 11 89 l-24 47 -11 -31z"/>
<path d="M1570 595 c0 -3 7 -13 15 -22 8 -10 20 -26 28 -36 10 -15 18 -16 38
-8 30 11 45 39 29 55 -7 7 -17 7 -32 -3 -17 -11 -22 -11 -29 1 -5 7 -9 9 -9 4
0 -6 -5 -5 -12 2 -12 12 -28 16 -28 7z"/>
<path d="M1345 580 c-9 -15 12 -47 35 -53 19 -5 26 8 21 36 -1 5 3 6 8 3 5 -3
7 -16 5 -29 l-5 -22 12 23 c7 12 16 22 21 22 5 0 3 6 -4 13 -16 15 -85 21 -93
7z"/>
<path d="M1202 538 c-33 -33 6 -91 47 -69 27 15 32 35 15 60 -17 23 -44 27
-62 9z m46 -31 c2 -12 -3 -17 -17 -17 -12 0 -21 6 -21 13 0 31 32 34 38 4z"/>
<path d="M1768 536 c-25 -18 -22 -39 6 -64 l25 -21 25 20 c31 24 33 40 8 62
-22 20 -41 21 -64 3z m49 -22 c8 -21 -13 -42 -28 -27 -13 13 -5 43 11 43 6 0
13 -7 17 -16z"/>
<path d="M2031 460 c0 -8 5 -25 12 -37 12 -21 13 -21 36 -4 13 10 21 23 17 29
-10 16 -36 3 -29 -14 9 -25 -6 -15 -21 14 -8 15 -15 20 -15 12z"/>
<path d="M934 448 c-8 -12 25 -40 41 -35 5 2 11 14 13 28 l2 24 -15 -25 c-9
-14 -14 -17 -11 -8 5 19 -20 33 -30 16z"/>
<path d="M1002 428 c-16 -16 -15 -38 2 -38 20 0 29 17 19 35 -7 12 -12 12 -21
3z"/>
<path d="M1483 398 c-27 -13 -37 -48 -18 -67 24 -24 45 -6 45 39 0 22 -1 40
-2 39 -2 0 -13 -5 -25 -11z"/>
<path d="M1527 403 c-2 -4 -3 -24 -3 -43 1 -27 5 -35 20 -35 10 0 24 8 30 18
9 15 7 21 -9 33 -11 8 -19 18 -17 22 5 9 -15 15 -21 5z"/>
<path d="M1055 390 c-4 -6 -11 -8 -16 -5 -5 4 -9 1 -9 -5 0 -6 -5 -8 -11 -4
-7 4 -10 1 -7 -6 7 -23 22 -21 41 5 10 14 16 25 13 25 -3 0 -8 -5 -11 -10z"/>
<path d="M1973 375 c15 -15 32 -23 39 -19 8 5 9 2 5 -9 -4 -11 1 -20 13 -27
20 -11 25 -4 21 28 -1 6 5 12 14 12 8 0 15 4 15 10 0 5 -13 7 -28 4 -16 -3
-45 1 -68 10 l-39 17 28 -26z"/>
<path d="M892 362 c-7 -5 -10 -16 -6 -25 8 -21 24 -22 24 -2 0 8 5 15 11 15 5
0 7 5 4 10 -7 12 -16 12 -33 2z"/>
<path d="M2110 357 c0 -22 11 -27 33 -16 16 9 17 13 6 20 -21 13 -39 11 -39
-4z"/>
<path d="M2083 331 c-1 -11 5 -25 13 -32 11 -9 14 -8 14 4 0 39 -24 64 -27 28z"/>
<path d="M920 315 c-8 -10 -9 -15 -1 -16 38 -4 46 -2 49 14 2 9 -1 17 -7 17
-6 0 -11 -6 -11 -12 0 -10 -2 -10 -9 0 -6 10 -10 10 -21 -3z"/>
<path d="M1357 323 c-4 -3 -7 -13 -7 -21 0 -9 3 -12 7 -9 3 4 12 2 19 -4 11
-9 15 -7 20 6 9 22 -23 45 -39 28z"/>
<path d="M1641 316 c-9 -10 -8 -16 3 -25 12 -10 17 -8 25 7 16 30 -6 44 -28
18z"/>
<path d="M1417 292 c-23 -26 -21 -33 7 -26 20 5 27 0 39 -23 9 -16 13 -44 11
-65 -3 -21 -1 -38 3 -38 20 1 28 19 31 63 3 46 2 48 -20 42 -23 -6 -23 -6 2
14 24 21 25 22 6 36 -27 20 -59 19 -79 -3z"/>
<path d="M1548 303 c-10 -2 -18 -13 -18 -23 0 -22 39 -38 50 -20 5 8 18 10 34
6 27 -7 27 -6 10 19 -16 24 -36 29 -76 18z"/>
<path d="M1527 243 c-7 -13 0 -88 8 -85 4 2 13 -5 20 -14 11 -15 12 -10 10 34
-2 28 -6 56 -10 61 -7 13 -22 14 -28 4z"/>
</g>
</svg>
